<?xml version="1.0" encoding="utf-8"?>
<!-- Generator: Adobe Illustrator 26.0.2, SVG Export Plug-In . SVG Version: 6.00 Build 0)  -->
<svg version="1.1" id="Layer_1" xmlns="http://www.w3.org/2000/svg" xmlns:xlink="http://www.w3.org/1999/xlink" x="0px" y="0px"
	 width="1000px" height="1000px" viewBox="0 0 1000 1000" style="enable-background:new 0 0 1000 1000;" xml:space="preserve">
<style type="text/css">
	.st0{fill:#E84621;}
	.st1{fill:#1A1449;}
</style>
<polygon class="st0" points="1000,550 1000,267.5 833.3,222.9 833.3,350.4 666.7,306.2 666.7,177.9 500,133.3 333.3,177.5 
	333.3,305 166.7,349.2 166.7,222.5 0,267.5 0,550 "/>
<path class="st1" d="M967.8,650.9h-36.4V575h-32.2v174.7h32.2v-74.5h36.4v74.5h32.2V575h-32.2V650.9z M875,602.4
	c0-18.3-10.2-27.4-30.5-27.4h-32.8c-20.4,0-30.5,9.1-30.5,27.4v120.2c0,18.3,10.2,27.4,30.5,27.4h32.8c20.4,0,30.5-9.1,30.5-27.4
	l0-64l-44.7,11.7l-1.8,10.2h14v38.8c0,3-0.6,4.9-1.7,6c-1.1,1-3.2,1.5-6.2,1.5h-13.2c-3,0-5-0.5-6.2-1.5c-1.1-1-1.7-3-1.7-6V605.7
	c0-3,0.6-4.9,1.7-6c1.1-1,3.2-1.5,6.2-1.5h13.2c3,0,5,0.5,6.2,1.5c1.1,1,1.7,3,1.7,6l1.4,31.3l31.1-8.1L875,602.4z M705,681.6
	l26.9,68.1h34.7l-29.4-68.9c13.6-2.6,20.5-11.4,20.5-26.6v-51.8c0-18.3-10.2-27.4-30.5-27.4h-65v174.7h32.2v-68.1H705z M717.6,599.4
	c3,0,5,0.5,6.2,1.5c1.1,1,1.7,3,1.7,6v43.8c0,3-0.6,4.9-1.7,6c-1.1,1-3.2,1.5-6.2,1.5h-23.3v-58.7L717.6,599.4L717.6,599.4z
	 M603.3,717.9c0,3-0.6,4.9-1.7,6c-1.1,1-3.3,1.5-6.4,1.5h-14.8c-3,0-5-0.5-6.2-1.5c-1.1-1-1.7-3-1.7-6V575h-32.2v147.3
	c0,18.3,10.2,27.4,30.5,27.4h34.2c20.4,0,30.5-9.1,30.5-27.4V575h-32.2L603.3,717.9L603.3,717.9z M481.4,648.2
	c-1.1,1-3.3,1.5-6.4,1.5h-25.5v-51.5h25.5c3.2,0,5.3,0.5,6.4,1.5c1.1,1,1.7,3,1.7,6v36.5C483.1,645.2,482.5,647.2,481.4,648.2
	 M481.4,724.9c-1.1,1-3.3,1.5-6.4,1.5h-25.5V673h25.5c3.2,0,5.3,0.5,6.4,1.5c1.1,1,1.7,3,1.7,6V719
	C483.1,721.9,482.5,723.9,481.4,724.9 M417.2,749.7h67.2c20.4,0,30.5-9.1,30.5-27.4v-41c0-10.7-3.9-17.3-11.8-19.9
	c7.8-2.6,11.8-9.7,11.8-21.3v-37.7c0-18.3-10.2-27.4-30.5-27.4h-67.2V749.7z M360.6,689.1L323.3,575h-31.1v174.7h29.7V634
	l37.8,115.7H390V575h-29.4V689.1z M231.4,749.7h32.2V575h-32.2L231.4,749.7L231.4,749.7z M106.2,749.7h67.2
	c20.4,0,30.5-9.1,30.5-27.4V602.4c0-18.3-10.2-27.4-30.5-27.4h-67.2C106.2,575,106.2,749.7,106.2,749.7z M169.8,724.9
	c-1.1,1-3.2,1.5-6.2,1.5h-25.2V598.3h25.2c3,0,5,0.5,6.2,1.5s1.7,3,1.7,6V719C171.5,721.9,170.9,723.9,169.8,724.9 M32.5,672.8H69
	l7-25H32.5v-48.5h51.6V575H0v174.7h86.3v-24.4H32.5V672.8z"/>
<path class="st1" d="M738,817c0.4-0.3,1.1-0.5,2.1-0.5h2.7c1,0,1.7,0.2,2,0.5c0.4,0.3,0.6,1,0.6,2v4.9c0,3.9-1.1,7.5-3.2,10.7
	L727.1,859v7.7h29.1v-8.1h-16.5l12.1-21.2c2.8-4.3,4.2-8.8,4.2-13.3v-6.6c0-6.1-3.4-9.2-10.2-9.2h-8.9c-6.7,0-10.1,3.1-10.1,9.2
	v10.2h10.6V819C737.5,818,737.6,817.3,738,817 M656,808.3v8.6h17.9l-15.8,49.7H669l16.3-52v-6.3L656,808.3L656,808.3z M602.4,808.3
	h-10.7c-6.7,0-10.1,3.1-10.1,9.2v12.7c0,3.8,1.3,6.2,3.9,7c-2.6,0.9-3.9,3.1-3.9,6.7v13.7c0,6.1,3.4,9.2,10.1,9.2h10.7
	c6.7,0,10.1-3.1,10.1-9.2v-13.7c0-3.6-1.3-5.8-3.9-6.7c2.6-0.9,3.9-3.2,3.9-7v-12.7C612.5,811.4,609.1,808.3,602.4,808.3
	 M601.7,858.1c-0.4,0.3-1.1,0.5-2.1,0.5h-5c-1,0-1.7-0.2-2-0.5c-0.4-0.3-0.6-1-0.6-2v-12.8c0-1,0.2-1.6,0.6-2c0.4-0.3,1-0.5,2-0.5h5
	c1.1,0,1.8,0.2,2.1,0.5c0.4,0.3,0.6,1,0.6,2v12.8C602.2,857.1,602,857.8,601.7,858.1 M601.7,833.1c-0.4,0.3-1.1,0.5-2.1,0.5h-5
	c-1,0-1.7-0.2-2-0.5c-0.4-0.3-0.6-1-0.6-2v-12.2c0-1,0.2-1.6,0.6-2c0.4-0.3,1-0.5,2-0.5h5c1.1,0,1.8,0.2,2.1,0.5
	c0.4,0.3,0.6,1,0.6,2v12.2C602.2,832.1,602,832.7,601.7,833.1 M516.5,808.3v8.1h7.2v50.2h10.6v-58.3L516.5,808.3L516.5,808.3z
	 M472.8,829.5h-11.3V842h11.3V829.5z M388,808.3v8.1h10.2v50.2h10.6v-50.2h10.3v-8.1H388z M334.2,858c-0.4,0.3-1.1,0.5-2,0.5h-3.5
	c-1,0-1.8-0.2-2.1-0.5c-0.4-0.3-0.6-1-0.6-2v-6.6h-10.6v8c0,6.1,3.4,9.2,10.1,9.2h10c6.7,0,10.1-3.1,10.1-9.2v-15.3
	c0-6-3.2-9.1-9.7-9.1h-7.3c-1.1,0-1.8-0.2-2.1-0.5c-0.4-0.3-0.6-1-0.6-2V819c0-1,0.2-1.6,0.6-2c0.4-0.3,1.1-0.5,2.1-0.5h3.5
	c1,0,1.7,0.2,2,0.5c0.4,0.3,0.6,1,0.6,2v6.7h10.7v-8.1c0-6.1-3.3-9.2-10-9.2h-10.2c-6.7,0-10,3.1-10,9.2v14.3c0,6.2,3.2,9.2,9.5,9.2
	h7.5c1,0,1.7,0.2,2,0.5c0.4,0.3,0.6,1,0.6,2V856C334.8,857,334.6,857.7,334.2,858 M253.6,840.9h14.3v-8.2h-14.3v-16.2h17v-8.1h-27.7
	v58.3h28.5v-8.1h-17.7L253.6,840.9L253.6,840.9z"/>
<rect x="0" y="775" class="st0" width="1000" height="8.3"/>
</svg>
