<?xml version="1.0" encoding="utf-8"?>
<!-- Generator: Adobe Illustrator 26.0.2, SVG Export Plug-In . SVG Version: 6.00 Build 0)  -->
<svg version="1.1"
	 id="svg2" xmlns:cc="http://creativecommons.org/ns#" xmlns:dc="http://purl.org/dc/elements/1.1/" xmlns:rdf="http://www.w3.org/1999/02/22-rdf-syntax-ns#" xmlns:svg="http://www.w3.org/2000/svg"
	 xmlns="http://www.w3.org/2000/svg" xmlns:xlink="http://www.w3.org/1999/xlink" x="0px" y="0px" width="150px" height="150px"
	 viewBox="0 0 150 150" style="enable-background:new 0 0 150 150;" xml:space="preserve">
<style type="text/css">
	.st0{fill:#003976;stroke:#FFFFFF;stroke-width:3;stroke-miterlimit:10;}
	.st1{fill:#FFFFFF;}
	.st2{fill:#003976;}
	.st3{fill:#A90533;}
</style>
<g>
	<path class="st0" d="M19.3,126.5h-5.1l-3,13l-0.1,0.4c-0.6,2.5-1.4,4-2.5,4c-0.4,0-0.8-0.1-1.1-0.4c-0.1-0.1-0.3-0.6-0.3-0.8
		c0-0.3,0-0.6,0.1-1c0-0.4,0.1-1,0.3-1.8l3-13.3H5.4L2.9,138c-0.3,1.1-0.4,2.1-0.6,2.8c-0.1,0.8-0.1,1.4-0.1,1.8
		c0,1.6,0.6,2.8,1.7,3.7c1,0.8,2.7,1.3,5,1.3c1.3,0,2.3-0.1,3.1-0.6c0.8-0.3,1.6-0.8,2.3-1.6c0.3-0.4,0.7-1,1-1.8
		c0.3-0.7,0.6-2,1-3.7L19,128L19.3,126.5z"/>
	<path class="st0" d="M42.2,126.5h-0.6L33,145.6l-0.7,1.4h5.2l1.6-4h4.2l-0.3,4h5l-0.1-20.5H42.2z M43.5,139.6h-3.1l1.8-5l2-4.9
		L43.5,139.6z"/>
	<path class="st0" d="M28.2,134.9c-0.1,0-0.1-0.1-0.1-0.1c-1.1-0.8-1.7-1.6-2-2c-0.4-0.4-0.6-1-0.6-1.6s0.1-1,0.4-1.3
		c0.4-0.3,0.7-0.4,1.3-0.4c0.7,0,1.1,0.1,1.4,0.7c0.3,0.4,0.6,1.1,0.6,2.3v0.3h4.4v-1.1c0-1.3-0.1-2.3-0.6-3.1
		c-0.3-0.4-0.6-0.8-1-1.1c-1-1-2.5-1.4-4.5-1.4c-2.1,0-3.8,0.4-5,1.6c-1.3,1-1.8,2.4-1.8,4.4c0,1,0.3,2,0.7,2.8
		c0.6,1,1.3,1.8,2.4,2.8c0.3,0.1,0.6,0.4,1,0.7c1.6,1.3,2.3,2.5,2.3,3.5c0,0.6-0.1,1.1-0.4,1.6c-0.4,0.3-0.8,0.6-1.4,0.6
		c-0.7,0-1.3-0.3-1.6-0.8c-0.3-0.4-0.6-1.1-0.6-2.1c0-0.3,0.1-0.6,0.1-1v-0.1h-4.7v0.1c0,0.4-0.1,0.8-0.1,1.1c0,1,0.1,1.8,0.4,2.7
		c0.3,0.8,0.7,1.6,1.3,2.1c1.1,1.1,2.7,1.7,4.8,1.7c2.4,0,4.1-0.6,5.2-1.7c1.3-1.1,1.8-2.7,1.8-4.7C32,139.1,30.7,137,28.2,134.9z"
		/>
	<path class="st0" d="M116.5,127.5c-1.1-0.7-3.1-1-5.9-1H106l-4.7,20.5h8.1c2.4,0,4.1-0.6,5.4-1.7c1.3-1,1.8-2.7,1.8-5.1
		c0-0.8-0.1-1.6-0.6-2.3c-0.4-0.6-1-1-1.8-1.4c1.3-0.4,2.3-1,3-2c0.6-1,1-2.3,1-3.8C118.2,129.2,117.6,128.1,116.5,127.5z
		 M110.8,142.7c-0.4,0.4-0.8,0.7-1.4,0.8h-2.3l1.3-5.5h1.3c0.6,0,1.1,0.1,1.4,0.6c0.3,0.3,0.4,0.8,0.4,1.4
		C111.5,141.1,111.4,142.1,110.8,142.7z M112.5,133.9c-0.6,0.6-1.3,0.8-2.1,0.8h-1.3l0.3-0.8l0.8-4.1h1.1c0.6,0,1.1,0.1,1.4,0.4
		c0.3,0.3,0.4,0.7,0.4,1.3C113.2,132.6,112.9,133.3,112.5,133.9L112.5,133.9z"/>
	<path class="st0" d="M95.1,126c-1.7,0-3.1,0.3-4.1,0.8c-1.1,0.7-2,1.6-2.5,2.8c-0.6,1-1,2.3-1.4,3.7c-0.4,1.6-0.8,3.3-1.1,5.4
		c-0.1,0.7-0.3,1.4-0.3,2.1c-0.1,0.6-0.1,1.1-0.1,1.6c0,1.7,0.4,3,1.1,3.8c0.8,1,2,1.4,3.5,1.4c1,0,2-0.3,2.7-0.6
		c0.9-0.4,1.4-1.1,2-1.8l-0.3,1.8h3.5l2.4-11.2h-6.9l-0.8,3.5h1.8c-0.3,1.8-0.7,3.1-1.1,3.7c-0.4,0.4-1,0.7-1.7,0.7
		c-0.4,0-0.7-0.1-1-0.4c-0.3-0.1-0.4-0.6-0.4-1c0-0.3,0.3-1.3,0.6-2.8v-0.1l1.3-5.4c0.4-2,0.8-3.1,1.1-3.5c0.4-0.6,0.8-0.7,1.6-0.7
		c0.4,0,0.8,0.1,1.1,0.4c0.3,0.3,0.4,0.7,0.4,1.3c0,0.1-0.1,0.4-0.1,0.8c0,0.3,0,0.7-0.1,1h4.8c0.1-0.4,0.1-0.9,0.1-1.1
		c0.1-0.4,0.1-0.7,0.1-1c0-1.7-0.6-3-1.6-3.8C98.5,126.4,97.1,126,95.1,126z"/>
	<path class="st0" d="M65.4,127.7c-0.6-0.4-1.3-0.7-2.1-1c-0.7-0.1-1.8-0.1-3.4-0.1h-5.2L50,147h5.1l1.8-8.5h1.3
		c0.6,0,1,0.1,1.3,0.4c0.1,0.1,0.3,0.3,0.4,0.4c0,0.1,0.1,0.4,0.1,0.7s-0.1,0.7-0.1,1.4c-0.1,0.4-0.3,0.8-0.3,1.4
		c-0.4,1.3-0.6,2.3-0.6,2.8c0,0.3,0.1,0.6,0.1,0.7c0,0.3,0.1,0.4,0.1,0.6h5.4v-0.4c-0.1-0.1-0.3-0.4-0.3-0.6c0-0.3-0.1-0.6-0.1-1
		c0-0.6,0.1-1.6,0.4-2.7c0.3-1.3,0.4-2.1,0.4-2.7c0-0.7-0.1-1.3-0.6-1.7c-0.3-0.4-1-0.7-1.7-0.9c1.4-0.4,2.4-1,3.1-2
		c0.7-0.8,1-2.1,1-3.8c0-0.8-0.1-1.6-0.4-2.1C66.4,128.7,66,128.1,65.4,127.7z M61,134.2c-0.3,0.3-0.7,0.6-1.1,0.7h-2.1l1.1-5H60
		c0.6,0,1,0.1,1.4,0.6c0.3,0.3,0.4,0.7,0.4,1.3C61.9,132.8,61.6,133.6,61,134.2z"/>
	<polygon class="st0" points="125.8,132.5 124.7,126.5 119.6,126.5 122.7,137.4 120.6,147 125.5,147 127.6,138 134.6,126.5 
		128.9,126.5 	"/>
	<path class="st0" d="M77.4,139.6l-0.1,0.4c-0.6,2.5-1.4,4-2.5,4c-0.4,0-0.8-0.1-1-0.4c-0.3-0.1-0.4-0.6-0.4-0.8c0-0.3,0-0.6,0.1-1
		c0-0.4,0.1-1,0.3-1.8l3.1-13.3h-5.2L69.1,138c-0.3,1.1-0.4,2.1-0.6,2.8c-0.1,0.8-0.1,1.4-0.1,1.8c0,1.6,0.6,2.8,1.7,3.7
		c1,0.8,2.7,1.3,5,1.3c1.3,0,2.3-0.1,3.1-0.6c0.8-0.3,1.6-0.8,2.3-1.6c0.3-0.4,0.7-1,1-1.8c0.3-0.7,0.6-2,1-3.7l3.1-13.4h-5.1
		L77.4,139.6z"/>
	<path class="st0" d="M147.8,19.1C101.7-2.2,56.3-2.8,13,17.3l-0.3,0.2l-0.1,0.4C-1.2,64,12.4,97.1,53.2,116.1l0.3,0.1l0.3-0.1
		c49.7-10.1,81.6-42.5,94.6-96.1l0.2-0.7L147.8,19.1z"/>
	<polygon class="st0" points="86.8,108.4 86.5,109.1 88,109.1 87,113.4 88.2,113.4 89,109.1 90.4,109.1 90.6,108.4 90.4,108.4 	"/>
	<polygon class="st0" points="95,113.4 95.9,108.4 94.5,108.4 92.8,111.8 92.7,108.4 91.3,108.4 90.4,112.4 90.1,113.4 91.1,113.4 
		91.8,109.1 92.1,113.4 93.1,113.4 95,109.1 94,113.4 	"/>
</g>
<g id="layer1" transform="translate(0,-252.36218)">
	<g id="g3172" transform="matrix(1.4682346,0,0,-1.4682346,-38.299892,1089.8195)">
		<g id="g3174" transform="scale(0.1,0.1)">
			<path id="path3176" class="st1" d="M806.6,5678.2l-105.9-1.3l-125.8-18.5l-127.1-39.7l-96.7-35.7l-27.8-131.1l-7.9-105.9
				l17.2-107.2l47.7-113.9l68.8-90l127.1-95.3l46.3-18.5l75.5,13.2l98,37.1l79.4,38.4l62.2,37.1l68.8,58.3l74.1,75.5l55.6,78.1
				l53,92.7l31.8,78.1l30.5,88.7l10.6,49l-109.9,51.6l-92.7,23.8l-91.4,23.8l-91.4,11.9h-70V5678.2z"/>
			<path id="path3178" class="st2" d="M392.2,4842h-34.7l-20.2-88.6l-1-2.9c-3.9-17.3-9.6-27-17.3-27c-2.9,0-5.8,1-7.7,2.9
				c-1,1-2,3.8-2,5.8c0,1.9,0,3.9,1,6.8c0,2.9,1,6.8,1.9,12.5l20.2,90.6h-34.7l-17.4-78c-1.9-7.7-2.9-14.4-3.8-19.2
				c-1-5.8-1-9.7-1-12.5c0-10.6,3.8-19.2,11.6-25c6.7-5.8,18.3-8.7,33.7-8.7c8.7,0,15.4,1,21.2,3.9c5.8,1.9,10.6,5.8,15.4,10.6
				c1.9,2.9,4.8,6.7,6.7,12.5c1.9,4.8,3.9,13.5,6.7,25l18.3,80.9"/>
			<path id="path3180" class="st2" d="M548.3,4842h-3.8l-58.8-130l-4.8-9.6h35.7l10.6,27H556l-1.9-27h33.7l-1,139.7 M557,4753.3
				h-21.2l12.5,33.7l13.5,33.7L557,4753.3z"/>
			<path id="path3182" class="st2" d="M452.9,4785.1c-1,0-1,1-1,1c-7.7,5.8-11.6,10.6-13.5,13.5c-2.9,2.9-3.9,6.8-3.9,10.6
				c0,3.9,1,6.8,2.9,8.7c2.9,1.9,4.8,2.9,8.7,2.9c4.8,0,7.7-1,9.6-4.8c1.9-2.9,3.9-7.7,3.9-15.4v-2h29.9v7.7
				c0,8.7-0.9,15.4-3.8,21.2c-1.9,2.9-3.8,5.8-6.7,7.7c-6.7,6.8-17.3,9.6-30.8,9.6c-14.4,0-26-2.9-33.7-10.6
				c-8.7-6.8-12.5-16.4-12.5-29.9c0-6.7,1.9-13.5,4.8-19.3c3.9-6.7,8.7-12.5,16.4-19.2c1.9-1,3.8-2.9,6.7-4.8
				c10.6-8.7,15.4-17.3,15.4-24.1c0-3.8-1-7.7-2.9-10.6c-2.9-1.9-5.8-3.8-9.6-3.8c-4.8,0-8.7,1.9-10.6,5.8
				c-1.9,2.9-3.9,7.7-3.9,14.5c0,1.9,1,3.9,1,6.7v1h-31.8v-1c0-2.9-1-5.8-1-7.7c0-6.7,1-12.5,2.9-18.3s4.8-10.6,8.7-14.5
				c7.7-7.7,18.3-11.6,32.8-11.6c16.4,0,27.9,3.9,35.7,11.6c8.7,7.7,12.5,18.3,12.5,31.8C478.9,4756.3,470.3,4770.7,452.9,4785.1"/>
			<path id="path3184" class="st3" d="M1054,4835.2c-7.7,4.8-21.2,6.7-40.5,6.7h-30.8L951,4702.3h54.9c16.4,0,27.9,3.8,36.6,11.6
				c8.7,6.7,12.5,18.3,12.5,34.7c0,5.8-1,10.6-3.9,15.4c-2.9,3.9-6.8,6.8-12.5,9.6c8.7,2.9,15.4,6.7,20.2,13.5
				c3.9,6.7,6.7,15.4,6.7,26C1065.6,4823.7,1061.7,4831.4,1054,4835.2 M1015.5,4732.1c-2.9-2.9-5.8-4.8-9.6-5.8h-15.4l8.7,37.5h8.7
				c3.8,0,7.7-1,9.6-3.8c2-1.9,2.9-5.8,2.9-9.6C1020.3,4742.7,1019.4,4736,1015.5,4732.1z M1027.1,4791.9c-3.9-3.8-8.7-5.8-14.4-5.8
				h-8.7l1.9,5.8l5.8,28h7.7c3.8,0,7.7-1,9.6-2.9s2.9-4.8,2.9-8.7C1031.9,4800.5,1029.9,4795.7,1027.1,4791.9L1027.1,4791.9z"/>
			<path id="path3186" class="st3" d="M908.6,4845.8c-11.5,0-21.2-1.9-27.9-5.8c-7.7-4.8-13.5-10.6-17.3-19.3
				c-3.9-6.7-6.7-15.4-9.6-25c-2.9-10.6-5.8-22.2-7.7-36.6c-1-4.8-1.9-9.6-1.9-14.5c-0.9-3.9-0.9-7.7-0.9-10.6
				c0-11.6,2.9-20.2,7.7-26c5.8-6.8,13.5-9.6,24.1-9.6c6.7,0,13.5,1.9,18.3,3.9c5.8,2.9,9.6,7.7,13.5,12.5l-1.9-12.5h24.1l16.4,76.1
				H898l-5.8-24.1h12.5c-1.9-12.5-4.8-21.2-7.7-25.1c-2.9-2.9-6.8-4.8-11.6-4.8c-2.9,0-4.8,1-6.7,2.9c-1.9,1-2.9,3.9-2.9,6.8
				c0,1.9,1.9,8.7,3.9,19.2v1l8.7,36.6c2.9,13.5,5.8,21.2,7.7,24.1c2.9,3.8,5.8,4.8,10.6,4.8c2.9,0,5.8-1,7.7-2.9s2.9-4.8,2.9-8.7
				c0-1-1-2.9-1-5.8c0-1.9,0-4.8-0.9-6.7h32.8c1,2.9,1,5.8,1,7.7c1,2.9,1,4.8,1,6.7c0,11.6-3.9,20.3-10.6,26
				C931.7,4842.9,922,4845.8,908.6,4845.8"/>
			<path id="path3188" class="st3" d="M706.3,4834.3c-3.9,2.9-8.7,4.8-14.5,6.8c-4.8,1-12.5,1-23.1,1H633l-31.8-139.7H636l12.5,57.8
				h8.7c3.9,0,6.8-1,8.7-2.9c1-1,1.9-1.9,2.9-2.9c0-1,1-2.9,1-4.8s-1-4.8-1-9.6c-1-2.9-1.9-5.8-1.9-9.6c-2.9-8.7-3.9-15.4-3.9-19.3
				c0-1.9,1-3.8,1-4.8c0-1.9,1-2.9,1-3.8h36.6v2.9c-1,1-1.9,2.9-1.9,3.9c0,1.9-1,3.9-1,6.7c0,3.8,1,10.6,2.9,18.3
				c1.9,8.7,2.9,14.4,2.9,18.3c0,4.8-1,8.7-3.8,11.5c-1.9,2.9-6.8,4.9-11.6,5.8c9.6,2.9,16.4,6.7,21.2,13.5c4.8,5.8,6.7,14.5,6.7,26
				c0,5.8-1,10.6-2.9,14.4C713,4827.5,710.1,4831.4,706.3,4834.3 M676.4,4790c-1.9-1.9-4.8-3.9-7.7-4.9h-14.5l7.7,33.7h7.7
				c3.9,0,6.8-1,9.6-3.8c1.9-1.9,2.9-4.8,2.9-8.7C682.2,4799.6,680.3,4793.8,676.4,4790L676.4,4790z"/>
			<path id="path3190" class="st3" d="M1117.6,4801.5l-7.7,40.4h-34.7l21.2-74.2l-14.5-65.5h33.7l14.5,61.6l47.2,78h-38.5"/>
			<path id="path3192" class="st3" d="M808.4,4842l-20.2-88.6l-1-2.9c-3.9-17.3-9.6-27-17.3-27c-2.9,0-5.8,1-6.8,2.9
				c-1.9,1-2.9,3.8-2.9,5.8c0,1.9,0,3.9,1,6.8c0,2.9,1,6.8,1.9,12.5l21.2,90.6h-35.7l-17.3-78c-1.9-7.7-2.9-14.4-3.9-19.2
				c-1-5.8-1-9.7-1-12.5c0-10.6,3.9-19.2,11.6-25c6.8-5.8,18.3-8.7,33.7-8.7c8.7,0,15.4,1,21.2,3.9c5.8,1.9,10.6,5.8,15.4,10.6
				c1.9,2.9,4.8,6.7,6.7,12.5c1.9,4.8,3.9,13.5,6.8,25l21.2,91.5"/>
			<path id="path3194" class="st2" d="M1267.5,5573.6c-313.9,145.4-622.8,149.6-918.1,12.5l-2.4-1.1l-0.7-2.5
				c-93.8-314.4-0.7-539.7,276.7-669.7l1.7-0.8l1.9,0.4c338.8,69.1,555.5,289.3,644.1,654.5l1.1,4.6 M626.1,4924.2
				c-201.9,95.2-303.5,242.3-303.5,439.1c0,65.6,11.4,136.7,34,213.3c289.9,133.8,593.2,129.9,901.5-11.6
				C1169,5203.1,962.2,4993.4,626.1,4924.2z"/>
			<path id="path3196" class="st3" d="M672.6,5208c-153.2,40.5-238.9,153.2-226.4,370.9c-83.8-202.3,7.7-405.6,233.1-468.2
				c178.2-30.8,316,13.5,411.3,142.6C953.8,5188.8,815.1,5177.2,672.6,5208"/>
			<path id="path3198" class="st3" d="M648.5,5079.9c-174.4,51.1-277.4,182.1-262,446c-35.7-102.1-45.3-205.2-15.4-294.8
				c43.3-130,157-231.2,275.5-258.2c99.2,3.9,204.2,50.1,292.9,122.4C845,5063.5,748.7,5057.7,648.5,5079.9"/>
			<path id="path3200" class="st2" d="M737.1,5648.3c83.8-5.8,163.8-21.2,238-55.9c38.5-20.2,62.6-43.4,56.8-73.2
				c34.7-33.7,40.5-75.2,16.4-124.3c-86.7,71.3-184.9,80.9-284.2,31.8c9.6,19.3,19.3,38.5,28.9,57.8c-39.5,6.7-79,13.5-117.5,20.2
				c34.7,14.5,70.3,28.9,105,43.3c-34.7,9.6-69.4,19.3-104,28.9c39.5,11.6,78,23.1,116.6,34.7c-103.1,8.7-313.1,25-319.8-121.4
				c1.9-39.5,6.7-77.1,32.7-106c-12.5,56.8-11.6,87.7,4.8,91.5c46.3,21.2,105-21.2,165.7-73.2c50.1-40.5,78-88.6,83.8-143.5
				c-46.2-6.7-106.9,10.6-178.2,37.6c138.7-104,367-64.6,527.9-1.9c-34.7,0-72.3,2.9-106.9,1.9c0,3.8,1,7.7,1.9,11.6
				c57.8,13.5,109.8,37.6,153.2,76.1c-27.9-1-54.9-1.9-82.8-3.9c54,28.9,119.4,51.1,132,106c11.5,80-150.3,122.4-202.3,134.9
				C913.4,5642.5,814.2,5652.1,737.1,5648.3 M771.8,5261c-17.3,107.9-83.8,188.8-222.6,229.3c52,4.8,114.6-18.3,185.9-71.3
				C779.5,5360.2,800.7,5305.3,771.8,5261L771.8,5261z"/>
			<path id="path3202" class="st2" d="M1006.8,5512.4l-122.3,41.4l53-30.8l-9.6-21.2"/>
			<path id="path3204" class="st2" d="M851.7,4965.3l-1.9-4.8h10.6l-6.7-28.9h7.7l5.8,28.9h9.6l1,4.8h-1"/>
			<path id="path3206" class="st2" d="M907.6,4931.6l6.7,33.7h-9.6l-11.6-23.2l-1,23.2h-9.6l-5.8-27l-1.9-6.7h6.7l4.8,28.9l1.9-28.9
				h6.7l12.5,28.9l-6.7-28.9"/>
		</g>
	</g>
</g>
</svg>
