<?xml version="1.0" encoding="utf-8"?>
<!-- Generator: Adobe Illustrator 26.0.1, SVG Export Plug-In . SVG Version: 6.00 Build 0)  -->
<svg version="1.1"
	 id="svg5017" xmlns:cc="http://creativecommons.org/ns#" xmlns:dc="http://purl.org/dc/elements/1.1/" xmlns:inkscape="http://www.inkscape.org/namespaces/inkscape" xmlns:rdf="http://www.w3.org/1999/02/22-rdf-syntax-ns#" xmlns:sodipodi="http://sodipodi.sourceforge.net/DTD/sodipodi-0.dtd" xmlns:svg="http://www.w3.org/2000/svg"
	 xmlns="http://www.w3.org/2000/svg" xmlns:xlink="http://www.w3.org/1999/xlink" x="0px" y="0px" viewBox="0 0 266.4 266.4"
	 enable-background="new 0 0 266.4 266.4" xml:space="preserve">
<g>
	<rect y="0" fill="#FFFFFF" width="266.4" height="266.4"/>
</g>
<g>
	<path fill="#0E0A0B" d="M113.6,89.1c0.3,0,0.5,0,0.6,0c3,0,6,0,9,0c0.1,0,0.2,0,0.3,0c0.4,0,0.5,0,0.5-0.4c0.2-0.9,0.3-1.8,0.5-2.7
		c0.5-2.7,0.9-5.3,1.4-8c0-0.1,0-0.2,0.1-0.2c0.1,0,0.2,0.1,0.2,0.1c0.9,1.1,1.8,2.1,2.7,3.2c2.9,3.5,5.8,7,8.7,10.5
		c0.3,0.4,0.4,0.8,0.3,1.3c-0.3,1.4-0.5,2.9-0.8,4.4c-0.1,0.3-0.2,0.6-0.4,0.8c-2.1,1.8-4.2,3.6-6.4,5.4c-0.2,0.2-0.5,0.3-0.8,0.3
		c-0.1,0-0.3,0-0.4,0c-6.7,0-13.3,0-20,0c-1,0-0.8,0.1-1.5-0.7c-2.9-3.5-5.8-7-8.7-10.6c-0.3-0.4-0.5-0.8-0.4-1.3
		c0.4-2.3,0.8-4.7,1.3-7.1c0.5-2.7,1-5.4,1.4-8.1c0.5-2.7,0.9-5.3,1.4-8c0.5-2.7,1-5.4,1.4-8.1c0.5-2.7,0.9-5.3,1.4-8
		c0.5-2.7,1-5.4,1.4-8.1c0.5-2.7,0.9-5.3,1.4-8c0.5-2.7,1-5.4,1.4-8c0.1-0.3,0.1-0.7,0.2-1c0-0.4,0.2-0.7,0.6-1
		c1.7-1.4,3.4-2.8,5-4.3c2.6-2.2,5.2-4.4,7.8-6.7c0.7-0.6,0.5-0.5,1.4-0.5c6.7,0,13.4,0,20,0c0.1,0,0.2,0,0.3,0
		c0.4,0,0.6,0.1,0.9,0.4c1.4,1.7,2.9,3.5,4.3,5.2c0.2,0.3,0.3,0.6,0.2,0.9c-0.3,1.5-0.5,3-0.8,4.5c0,0.2-0.1,0.4-0.3,0.6
		c-0.7,0.6-1.3,1.1-2,1.7c-4.7,4-9.5,8-14.2,12.1c-0.2,0.2-0.3,0.4-0.7,0.5c0-0.6,0.2-1.2,0.3-1.8c0.1-0.6,0.2-1.2,0.3-1.8
		c0.1-0.6,0.2-1.3,0.3-1.9c0.1-0.6,0.2-1.3,0.3-1.9c0.1-0.6,0.2-1.2,0.3-1.8c0.1-0.6,0.2-1.2,0.3-1.9c-0.7-0.1-9.6-0.1-10.3,0
		C120.7,49,117.1,69,113.6,89.1z"/>
	<path fill="#BEF02D" d="M140.9,75.4c-0.3,0-0.3-0.2-0.4-0.3c-2.6-3.2-5.2-6.4-7.9-9.5c-1-1.2-2-2.4-3-3.6c-0.3-0.4-0.5-0.8-0.4-1.3
		c0.3-1.4,0.5-2.8,0.8-4.3c0.1-0.4,0.2-0.6,0.5-0.8c2-1.7,4.1-3.4,6.1-5.2c0.3-0.3,0.7-0.4,1.1-0.4c3.8,0,7.6,0,11.4,0
		c2.9,0,5.7,0,8.6,0c0.1,0,0.3,0,0.4,0c0.4-0.1,0.7,0.1,0.9,0.5c0.4,0.5,0.9,1,1.3,1.5c2.5,3.1,5.1,6.2,7.7,9.3
		c0.3,0.4,0.4,0.7,0.3,1.2c-0.4,2-0.7,4-1.1,6c-0.4,2.4-0.8,4.8-1.3,7.1c-0.4,2.3-0.8,4.7-1.2,7c-0.4,2.4-0.8,4.8-1.3,7.2
		c-0.4,2-0.7,4-1,6c-0.4,2.4-0.9,4.8-1.3,7.2c-0.5,3-1.1,6.1-1.6,9.1c-0.5,2.6-0.9,5.3-1.4,7.9c-0.4,2.3-0.8,4.5-1.2,6.8
		c-0.1,0.4-0.2,0.7-0.5,0.9c-1.9,1.6-3.7,3.1-5.5,4.7c-2.4,2.1-4.8,4.1-7.2,6.2c-0.4,0.4-0.8,0.5-1.4,0.5c-6.5,0-13,0-19.5,0
		c-0.3,0-0.6,0-0.9,0c-0.3,0-0.6-0.1-0.8-0.4c-0.9-1.1-1.8-2.2-2.7-3.3c-0.5-0.6-0.9-1.1-1.4-1.7c-0.3-0.3-0.4-0.7-0.3-1.1
		c0.2-1,0.4-2.1,0.6-3.1c0-0.1,0-0.1,0-0.2c0.1-0.4,0.1-0.9,0.3-1.3c0.3-0.4,0.7-0.7,1.1-1c2.4-2.1,4.8-4.1,7.3-6.2
		c2.7-2.3,5.3-4.5,8-6.8c0.1-0.1,0.2-0.2,0.3-0.1c0.1,0.2,0,0.3,0,0.5c-0.6,3.3-1.2,6.5-1.7,9.8c0,0.1,0,0.2,0,0.3
		c0,0.2,0.1,0.3,0.3,0.3c0.1,0,0.3,0,0.4,0c3.1,0,6.1,0,9.2,0c0.1,0,0.3,0,0.4,0c0.2,0,0.3-0.1,0.4-0.3c0.2-0.9,0.3-1.8,0.5-2.7
		c0.4-2.4,0.9-4.8,1.3-7.2c0.4-2.4,0.8-4.8,1.3-7.1c0.4-2.3,0.8-4.6,1.2-6.9c0.4-2.5,0.9-4.9,1.3-7.4c0.4-2.3,0.8-4.5,1.2-6.8
		c0.4-2.1,0.7-4.2,1.1-6.3c0.5-3,1.1-6.1,1.6-9.1c0.3-1.9,0.7-3.8,1-5.7c0-0.2,0-0.3,0.1-0.5c0-0.2-0.1-0.3-0.3-0.3
		c-0.1,0-0.3,0-0.4,0c-3.1,0-6.1,0-9.2,0c-0.7,0-0.7,0-0.8,0.7c-0.5,3.2-1.1,6.3-1.7,9.4C141,74.8,140.9,75.1,140.9,75.4z"/>
	<path fill="#0F0B0C" d="M171.3,194c0,0.3,0,0.6,0,0.9c0,4.6,0,9.1,0,13.7c0,0.2,0,0.4,0,0.7c0,0.3-0.1,0.4-0.4,0.4
		c-0.4,0-0.8,0-1.3,0c-1.3,0-2.6,0-3.8,0c-0.1,0-0.3,0-0.4,0c-0.2,0-0.3-0.1-0.3-0.3c0-0.2,0-0.4,0-0.6c0-10.4,0-20.7,0-31.1
		c0-0.9-0.1-0.8,0.8-0.8c1.6,0,3.2,0,4.8,0c0.4,0,0.6,0.2,0.8,0.5c1.7,3.8,3.4,7.6,5,11.4c0.5,1.1,1,2.2,1.5,3.3
		c0,0.1,0.1,0.2,0.2,0.3c0,0,0,0,0.1,0c0.1,0,0.1,0.1,0.1,0c0-0.2,0-0.4,0-0.7c0-4.6,0-9.2,0-13.8c0-0.2,0-0.4,0-0.7
		c0-0.4,0-0.4,0.4-0.4c1.8,0,3.6,0,5.3,0c0.1,0,0.2,0,0.2,0c0.1,0,0.2,0.1,0.2,0.2c0,0.2,0,0.4,0,0.6c0,10.4,0,20.7,0,31.1
		c0,0.8,0.1,0.8-0.8,0.8c-1.6,0-3.2,0-4.8,0c-0.4,0-0.6-0.1-0.7-0.5c-1-2.3-2-4.5-3-6.8c-1.2-2.6-2.3-5.3-3.5-7.9
		c-0.1-0.1-0.1-0.3-0.2-0.4C171.4,194,171.3,194,171.3,194z"/>
	<path fill="#0F0B0C" d="M66.4,195c0.2-0.1,0.2-0.3,0.3-0.5c0.6-1.3,1.3-2.6,1.9-3.9c0.2-0.3,0.3-0.5,0.7-0.5c1,0,2,0,3,0
		c0.7,0,0.6,0,0.6-0.7c0-0.9,0-1.9,0-2.8c0-3,0-6,0-9c0-0.7,0-0.7,0.7-0.7c1.6,0,3.2,0,4.8,0c0.1,0,0.3,0,0.4,0
		c0.2,0,0.3,0.1,0.3,0.2c0,0.2,0,0.4,0,0.6c0,10.4,0,20.7,0,31.1c0,0.9,0.1,0.8-0.8,0.8c-1.5,0-3.1,0-4.6,0c-0.2,0-0.3,0-0.5,0
		c-0.2,0-0.3-0.1-0.3-0.3c0-0.2,0-0.4,0-0.7c0-3.9,0-7.7,0-11.6c0-0.8,0-0.7-0.7-0.7c-1.8,0-3.5,0-5.3,0c-0.2,0-0.3,0-0.5,0
		c-0.1,0-0.2,0.1-0.2,0.2c0,0.2,0,0.5,0,0.8c0,3.8,0,7.6,0,11.4c0,0.2,0,0.4,0,0.7c0,0.2-0.1,0.3-0.2,0.3c-0.1,0-0.3,0-0.4,0
		c-1.6,0-3.2,0-4.8,0c-0.2,0-0.3,0-0.5,0c-0.1,0-0.2-0.1-0.2-0.2c0-0.2,0-0.4,0-0.6c0-1.3,0-2.7,0-4c0-9,0-17.9,0-26.9
		c0-0.2,0-0.4,0-0.7c0-0.3,0-0.4,0.4-0.4c1.8,0,3.6,0,5.4,0c0.3,0,0.4,0,0.4,0.4c0,0.2,0,0.4,0,0.7c0,5.4,0,10.9,0,16.3
		C66.3,194.5,66.3,194.7,66.4,195C66.3,195,66.3,195,66.4,195z"/>
	<path fill="#0F0B0C" d="M187.7,193.2c0-3.5,0-7.1,0-10.6c0-0.4,0.1-0.7,0.4-1c1.5-1.4,2.9-2.8,4.3-4.3c0.3-0.3,0.5-0.4,0.9-0.4
		c2.8,0,5.5,0,8.3,0c0.4,0,0.6,0.1,0.9,0.4c1.4,1.5,2.9,2.9,4.4,4.4c0.3,0.2,0.4,0.5,0.4,0.9c0,1.4,0,2.8,0,4.2c0,0.1,0,0.2,0,0.3
		c0,0.1-0.1,0.2-0.2,0.2c-0.1,0-0.2,0-0.3,0c-1.7,0-3.4,0-5.1,0c-0.1,0-0.1,0-0.2,0c-0.3,0-0.4-0.1-0.4-0.3c0-0.5,0-1.1,0-1.6
		c0-0.3-0.1-0.5-0.3-0.7c-0.4-0.4-0.8-0.8-1.2-1.2c-0.2-0.2-0.4-0.3-0.7-0.3c-0.9,0-1.9,0-2.8,0c-0.3,0-0.5,0.1-0.7,0.3
		c-0.4,0.4-0.8,0.8-1.2,1.2c-0.2,0.2-0.3,0.4-0.3,0.7c0,0.1,0,0.3,0,0.4c0,5,0,10,0,15c0,1-0.1,0.8,0.6,1.5c0.1,0.1,0.3,0.2,0.3,0.4
		c0.5,0.7,1.2,0.9,2,0.8c0.7-0.1,1.3,0,2,0c0.3,0,0.5-0.1,0.7-0.3c0.4-0.4,0.8-0.8,1.2-1.2c0.1-0.1,0.2-0.3,0.2-0.5
		c0-0.7,0-1.4,0-2.2c0-0.2-0.1-0.3-0.3-0.3c-0.4,0-0.7,0-1.1,0c-0.9,0-1.7,0-2.6,0c-0.2,0-0.3-0.1-0.2-0.3c0-0.1,0.1-0.2,0.1-0.3
		c0.8-1.7,1.6-3.4,2.4-5c0.1-0.1,0.1-0.2,0.2-0.4c0.1-0.1,0.2-0.2,0.3-0.2c0.1,0,0.3,0,0.4,0c2,0,4.1,0,6.1,0c0.2,0,0.3,0,0.5,0
		c0.1,0,0.2,0.1,0.2,0.2c0,0.2,0,0.3,0,0.5c0,3.5,0,7,0,10.4c0,0.4-0.1,0.7-0.4,1c-1.5,1.4-2.9,2.9-4.3,4.3c-0.3,0.3-0.6,0.4-1,0.4
		c-2.7,0-5.4,0-8.1,0c-0.4,0-0.6-0.1-0.9-0.3c-1.5-1.5-3-3-4.4-4.4c-0.3-0.3-0.4-0.6-0.4-1C187.7,200.3,187.7,196.8,187.7,193.2z"/>
	<path fill="#0F0B0C" d="M143.2,233.2c0,4.2,0,8.5,0,12.7c0,0.1,0,0.3,0,0.4c0.1,0.5-0.2,0.8-0.5,1.1c-1.1,1-2.1,2.1-3.2,3.2
		c-0.4,0.4-0.8,0.7-1.1,1.1c-0.2,0.2-0.5,0.4-0.8,0.3c-2.8,0-5.6,0-8.4,0c-0.3,0-0.5-0.1-0.7-0.3c-1.5-1.5-3-3-4.5-4.5
		c-0.2-0.2-0.3-0.4-0.3-0.7c0-0.1,0-0.3,0-0.4c0-8.6,0-17.2,0-25.8c0-1.1-0.1-0.9,0.9-0.9c1.5,0,3,0,4.4,0c0.2,0,0.4,0,0.6,0
		c0.2,0,0.3,0.1,0.3,0.2c0,0.3,0,0.5,0,0.8c0,7.5,0,15.1,0,22.6c0,0.1,0,0.3,0,0.4c-0.1,0.5,0.1,0.8,0.5,1.2c0.4,0.3,0.7,0.7,1,1
		c0.2,0.2,0.4,0.3,0.7,0.3c0.9,0,1.8,0,2.7,0c0.3,0,0.5-0.1,0.7-0.3c0.4-0.4,0.9-0.9,1.3-1.3c0.2-0.2,0.3-0.4,0.3-0.7
		c0-0.2,0-0.4,0-0.6c0-7.6,0-15.2,0-22.8c0-1.1-0.1-0.9,0.9-0.9c1.5,0,3,0,4.5,0c0.2,0,0.4,0,0.6,0c0.1,0,0.1,0.1,0.2,0.2
		c0,0.2,0,0.5,0,0.8C143.2,224.6,143.2,228.9,143.2,233.2z"/>
	<path fill="#0F0B0C" d="M92,176.9c1,0,2.1,0,3.1,0c0.4,0,0.5,0,0.5,0.5c1.1,5.7,2.2,11.3,3.4,17c0.9,4.6,1.9,9.3,2.8,13.9
		c0.1,0.4,0.2,0.8,0.2,1.2c-0.4,0.2-0.9,0.1-1.3,0.1c-1.3,0-2.7,0-4,0c-0.4,0-0.5,0.1-0.6-0.5c-0.1-0.7-0.2-1.3-0.4-2
		c-0.1-0.4-0.1-0.4-0.5-0.4c-2.1,0-4.2,0-6.3,0c-0.4,0-0.5,0-0.5,0.5c-0.1,0.7-0.3,1.4-0.4,2c-0.1,0.3-0.1,0.4-0.5,0.4
		c-1.6,0-3.3,0-4.9,0c-0.4,0-0.5-0.1-0.4-0.5c0.2-1,0.4-2,0.6-2.9c0.7-3.5,1.4-7.1,2.1-10.6c0.7-3.5,1.4-7,2.1-10.5
		c0.5-2.4,0.9-4.8,1.4-7.2c0.2-1.1,0-0.9,1.1-1C90.3,176.9,91.2,176.9,92,176.9z M94.4,201.1c-0.3-1.9-2.2-11.2-2.4-11.9
		c-0.1,0.1-0.1,0.2-0.2,0.4c-0.7,3.6-1.4,7.3-2.2,10.9c0,0.2-0.1,0.5,0,0.7C90.8,201.2,93.8,201.2,94.4,201.1z"/>
	<path fill="#0F0B0C" d="M146.4,235.7c0-5.1,0-10.2,0-15.4c0-0.2,0-0.4,0-0.7c0-0.3,0.1-0.4,0.3-0.4c0.2,0,0.4,0,0.6,0
		c4.2,0,8.5,0,12.7,0c0.1,0,0.2,0,0.3,0c0.3-0.1,0.6,0.1,0.8,0.3c1.2,1.3,2.5,2.5,3.8,3.8c0.3,0.3,0.5,0.5,0.8,0.8
		c0.2,0.2,0.2,0.3,0.2,0.6c0,0.8,0,1.7,0,2.5c0,2.3,0,4.5,0,6.8c0,0.4-0.1,0.7-0.4,1c-1.4,1.4-2.9,2.9-4.3,4.3
		c-0.3,0.3-0.6,0.4-1,0.4c-2.3,0-4.6,0-6.8,0c-0.8,0-0.7,0-0.7,0.7c0,3.5,0,7.1,0,10.6c0,1,0.1,0.9-0.9,0.9c-1.5,0-3,0-4.5,0
		c-0.2,0-0.4,0-0.6,0c-0.1,0-0.2-0.1-0.2-0.2c0-0.2,0-0.5,0-0.8C146.4,246,146.4,240.9,146.4,235.7z M152.6,232.6c0,2.2,0,4.4,0,6.6
		c0,0.1,0,0.2,0.1,0.2c0.1,0,0.1-0.1,0.2-0.2c0.1-0.2,0.2-0.4,0.3-0.7c0.7-1.5,1.5-3,2.2-4.5c0.1-0.3,0.3-0.5,0.7-0.5
		c0.5,0,0.9,0,1.4,0c0.3,0,0.5-0.1,0.7-0.3c0.4-0.4,0.9-0.9,1.3-1.3c0.2-0.2,0.3-0.3,0.3-0.6c0-1.3,0-2.6,0-3.8
		c0-0.3-0.1-0.5-0.3-0.7c-0.4-0.4-0.8-0.8-1.2-1.2c-0.2-0.2-0.5-0.3-0.8-0.3c-1.4,0-2.9,0-4.3,0c-0.1,0-0.2,0-0.3,0
		c-0.2,0-0.3,0.1-0.3,0.3c0,0.2,0,0.4,0,0.7C152.6,228.5,152.6,230.6,152.6,232.6z"/>
	<path fill="#110D0E" d="M229.2,177c-0.1,0.2-0.1,0.3-0.2,0.5c-0.8,1.7-1.6,3.3-2.4,5c-0.1,0.1-0.1,0.3-0.2,0.4
		c-0.1,0.2-0.2,0.3-0.4,0.2c-0.2,0-0.4,0-0.6,0c-2.6,0-5.1,0-7.7,0c-0.2,0-0.3,0-0.5,0c-0.5,0-0.5,0-0.5,0.6c0,0.9,0,1.8,0,2.8
		c0,1.1,0,2.2,0,3.3c0,0.3,0,0.4,0.4,0.4c1.9,0,3.8,0,5.8,0c0.3,0,0.5,0,0.8,0c0.1,0.2,0,0.3-0.1,0.4c-0.9,1.8-1.7,3.5-2.6,5.3
		c-0.2,0.3-0.3,0.4-0.7,0.4c-1.1,0-2.1,0-3.2,0c-0.4,0-0.4,0-0.4,0.4c0,1.4,0,2.8,0,4.2c0,0.7,0,1.4,0,2.1c0,0.3,0.1,0.3,0.3,0.3
		c0.2,0,0.4,0,0.7,0c3.5,0,7.1,0,10.6,0c0.3,0,0.6,0,0.8,0c0.1,0.2,0,0.4-0.1,0.5c-0.8,1.8-1.7,3.5-2.6,5.2c0,0.1-0.1,0.2-0.2,0.3
		c-0.1,0.1-0.2,0.2-0.3,0.2c-0.2,0-0.3,0-0.5,0c-4.7,0-9.5,0-14.2,0c-0.2,0-0.4,0-0.6,0c-0.2,0-0.3-0.1-0.3-0.3c0-0.2,0-0.4,0-0.6
		c0-10.4,0-20.7,0-31.1c0-0.1,0-0.1,0-0.2c0-0.6,0-0.6,0.6-0.6c5.8,0,11.7,0,17.5,0C228.8,176.9,229,176.8,229.2,177z"/>
	<path fill="#0F0B0C" d="M162.4,177c0.1,0.2-0.1,0.3-0.1,0.5c-0.8,1.7-1.7,3.5-2.5,5.2c0,0.1-0.1,0.1-0.1,0.2
		c-0.1,0.2-0.2,0.3-0.5,0.3c-0.2,0-0.4,0-0.6,0c-2.6,0-5.2,0-7.8,0c-0.2,0-0.4,0-0.7,0c-0.1,0-0.2,0.1-0.2,0.2c0,0.1,0,0.2,0,0.3
		c0,2,0,4,0,6c0,0.1,0,0.2,0,0.3c0,0.1,0.1,0.2,0.2,0.2c0.2,0,0.4,0,0.7,0c1.8,0,3.5,0,5.3,0c0.3,0,0.6,0,0.8,0c0.1,0.1,0,0.2,0,0.4
		c-0.9,1.8-1.8,3.6-2.7,5.5c-0.1,0.3-0.3,0.4-0.6,0.4c-1,0-1.9,0-2.9,0c-0.1,0-0.3,0-0.4,0c-0.3,0-0.4,0.1-0.4,0.4
		c0,0.5,0,1.1,0,1.6c0,1.4,0,2.9,0,4.3c0,0.1,0,0.2,0,0.3c0,0.3,0.1,0.4,0.4,0.4c0.2,0,0.4,0,0.7,0c3.5,0,7,0,10.5,0
		c0.3,0,0.5,0,0.8,0c0.2,0,0.2,0.1,0.1,0.2c0,0.1-0.1,0.3-0.2,0.4c-0.8,1.7-1.6,3.3-2.4,5c-0.1,0.1-0.1,0.3-0.2,0.4
		c-0.1,0.1-0.2,0.2-0.3,0.2c-0.1,0-0.3,0-0.4,0c-4.8,0-9.6,0-14.4,0c-0.2,0-0.3,0-0.5,0c-0.1,0-0.1-0.1-0.2-0.2c0-0.2,0-0.3,0-0.5
		c0-0.9,0-1.8,0-2.8c0-9.4,0-18.8,0-28.2c0-0.2,0-0.4,0-0.7c0-0.3,0-0.4,0.4-0.4c0.2,0,0.3,0,0.5,0c5.7,0,11.3,0,17,0
		C161.9,176.9,162.1,176.8,162.4,177z"/>
	<path fill="#0F0B0C" d="M114.7,229.5c0-0.5,0-1.1,0-1.6c0-0.4-0.1-0.7-0.4-0.9c-0.4-0.4-0.8-0.8-1.2-1.2c-0.2-0.2-0.4-0.2-0.6-0.2
		c-0.9,0-1.9,0-2.8,0c-0.2,0-0.4,0.1-0.6,0.2c-0.4,0.4-0.9,0.9-1.3,1.3c-0.2,0.2-0.3,0.4-0.2,0.6c0,0.2,0,0.3,0,0.5c0,5,0,10,0,15
		c0,0.2,0,0.3,0,0.5c0,0.2,0,0.4,0.2,0.6c0,0,0,0,0.1,0.1c0.5,0.5,1,1,1.5,1.5c0.7,0.1,1.3,0,2,0.1c0.5,0,1,0,1.5,0
		c0.4-0.3,0.7-0.7,1.1-1c0.6-0.5,0.9-1.1,0.8-1.9c0-0.4,0-0.7,0-1c0.2-0.1,0.3,0,0.4,0c1.8,0.9,3.5,1.7,5.3,2.6
		c0.4,0.2,0.5,0.4,0.5,0.8c0,0.4,0,0.9,0,1.3c0,0.2-0.1,0.4-0.3,0.6c-1.5,1.5-3.1,3-4.6,4.6c-0.2,0.2-0.4,0.3-0.7,0.3
		c-2.8,0-5.6,0-8.3,0c-0.3,0-0.6-0.1-0.8-0.3c-1.5-1.5-3-3-4.5-4.5c-0.2-0.2-0.3-0.4-0.3-0.7c0-0.2,0-0.3,0-0.5c0-6.9,0-13.7,0-20.6
		c0-0.7,0.2-1.2,0.7-1.7c1.3-1.3,2.7-2.6,4-3.9c0.3-0.3,0.6-0.5,1.1-0.5c2.7,0,5.4,0,8.1,0c0.4,0,0.7,0.1,1,0.4
		c1.5,1.5,3,2.9,4.4,4.4c0.2,0.2,0.3,0.5,0.3,0.8c0,0.6,0,1.1,0,1.7c-0.4,0.4-1,0.5-1.5,0.8c-1.3,0.7-2.6,1.3-4,1.9
		C115.2,229.4,115,229.6,114.7,229.5z"/>
	<path fill="#0F0B0C" d="M50.5,187.1c0-0.6,0-1.2,0-1.8c0-0.3-0.1-0.6-0.3-0.8c-0.4-0.4-0.8-0.8-1.2-1.2c-0.2-0.2-0.3-0.3-0.6-0.3
		c-1,0-1.9,0-2.9,0c-0.2,0-0.4,0.1-0.6,0.3c-0.4,0.4-0.8,0.8-1.2,1.2c-0.3,0.2-0.4,0.5-0.3,0.9c0,0.7,0,1.3,0,2c0,4.5,0,9,0,13.4
		c0,0.5,0.1,1,0.6,1.3c0.4,0.3,0.7,0.7,1,1c0.1,0.2,0.3,0.2,0.5,0.2c1,0,2,0,3,0c0.2,0,0.3,0,0.5-0.2c0.5-0.5,1-0.9,1.4-1.4
		c0.2-0.1,0.2-0.3,0.2-0.5c0-0.5,0-0.9,0-1.4c0-0.2,0-0.3,0-0.5c0.2-0.1,0.4,0,0.5,0.1c1.7,0.8,3.4,1.7,5.2,2.5
		c0.3,0.2,0.5,0.3,0.5,0.7c0,0.6,0,1.1,0,1.7c-0.3,0.5-0.8,0.8-1.1,1.2c-1.2,1.2-2.3,2.3-3.5,3.5c-0.3,0.3-0.7,0.5-1.2,0.5
		c-2.7,0-5.3,0-8,0c-0.4,0-0.7-0.1-1-0.4c-1.4-1.5-2.9-2.9-4.4-4.4c-0.3-0.3-0.4-0.6-0.4-0.9c0-3.2,0-6.3,0-9.5c0-3.9,0-7.8,0-11.8
		c0-0.4,0.1-0.7,0.4-1c1.5-1.4,2.9-2.9,4.3-4.3c0.3-0.3,0.6-0.4,0.9-0.4c2.7,0,5.5,0,8.2,0c0.4,0,0.7,0.1,1,0.4
		c1.5,1.5,2.9,2.9,4.4,4.4c0.3,0.3,0.4,0.5,0.4,0.9c0,0.5,0,0.9,0,1.4c0,0.2,0,0.3-0.2,0.4c-1.9,0.9-3.9,1.9-5.8,2.8
		C50.7,187.1,50.7,187.1,50.5,187.1z"/>
	<path fill="#120F10" d="M111.1,177c0,0.3,0,0.6,0,0.9c0,8.2,0,16.4,0,24.5c0,1.1-0.1,0.9,0.9,0.9c3,0,6,0,8.9,0c0.3,0,0.5,0,0.8,0
		c0.1,0.2,0,0.4-0.1,0.5c-0.8,1.8-1.7,3.5-2.5,5.3c-0.2,0.4-0.4,0.5-0.8,0.5c-4.3,0-8.6,0-12.9,0c-0.1,0-0.2,0-0.3,0
		c-0.2,0-0.3-0.1-0.3-0.3c0-0.2,0-0.4,0-0.6c0-10.3,0-20.7,0-31c0-0.9-0.1-0.8,0.8-0.8c1.6,0,3.1,0,4.7,0
		C110.6,176.9,110.9,176.8,111.1,177z"/>
	<path fill="#100C0D" d="M141.4,203.4c0.1,0.3,0,0.4-0.1,0.5c-0.8,1.7-1.7,3.4-2.5,5.2c0,0.1-0.1,0.2-0.1,0.2
		c-0.1,0.2-0.3,0.4-0.5,0.3c-0.2,0-0.3,0-0.5,0c-4.1,0-8.1,0-12.2,0c-0.2,0-0.4,0-0.7,0c-0.2,0-0.3-0.1-0.3-0.2c0-0.2,0-0.4,0-0.6
		c0-10.4,0-20.7,0-31.1c0-0.9-0.1-0.8,0.8-0.8c1.5,0,3.1,0,4.6,0c0.2,0,0.4,0,0.6,0c0.1,0,0.2,0.1,0.2,0.2c0,0.2,0,0.5,0,0.8
		c0,8.2,0,16.4,0,24.5c0,0.3,0,0.5,0,0.8c0,0.1,0.1,0.2,0.2,0.2c0.2,0,0.4,0,0.7,0c3,0,6,0,8.9,0
		C140.8,203.4,141.1,203.4,141.4,203.4z"/>
	<path fill="#BEF02D" d="M164.4,161.2c1.3,1.9,2.6,3.7,3.8,5.5c0,0.2-0.2,0.2-0.3,0.2c-1.3,0-2.6,0-3.9,0c-0.4,0-0.6-0.1-0.7-0.4
		c-0.9-1.3-1.8-2.6-2.7-4c-0.2-0.3-0.5-0.5-0.9-0.5c-0.8,0-1.7,0-2.5,0c-0.3,0-0.4,0.1-0.4,0.4c0,1.2,0,2.3,0,3.5c0,1,0.1,1-0.9,1
		c-0.9,0-1.9,0-2.8,0c-0.7,0-0.7,0-0.7-0.7c0-0.1,0-0.2,0-0.3c0-5.3,0-10.5,0-15.8c0-0.2,0-0.3,0-0.5c0-0.5,0-0.6,0.6-0.6
		c2.6,0,5.3,0,7.9,0c1.4,0,2.7,0.3,3.9,1c2,1.1,3,2.8,3.1,5c0,0.7,0,1.4-0.2,2.2c-0.4,1.5-1.2,2.7-2.5,3.5
		C165,160.9,164.7,161,164.4,161.2z M156.7,155.6C156.7,155.6,156.7,155.6,156.7,155.6c0,0.8,0,1.6,0,2.3c0,0.5,0,0.5,0.5,0.5
		c0.8,0,1.7,0,2.5,0c0.3,0,0.7,0,1,0c1.6-0.2,2.5-0.9,2.6-2.5c0.1-1.3-0.4-2.4-1.7-2.9c-0.4-0.1-0.8-0.3-1.2-0.3c-1.1,0-2.2,0-3.3,0
		c-0.4,0-0.4,0.1-0.4,0.4C156.7,153.9,156.7,154.8,156.7,155.6z"/>
	<path fill="#BEF02D" d="M98.7,157.9c0-2.7,0-5.4,0-8.1c0-0.8,0-0.8,0.8-0.8c4,0,8.1,0,12.1,0c0.8,0,0.7,0,0.7,0.7
		c0,0.8,0,1.7,0,2.5c0,0.3-0.1,0.4-0.4,0.4c-0.2,0-0.4,0-0.7,0c-2.4,0-4.7,0-7.1,0c-0.2,0-0.4,0-0.7,0c-0.3,0-0.4,0.1-0.4,0.3
		c0,0.6,0,1.1,0,1.7c0,0.4,0,0.7,0,1.1c0,0.2,0.1,0.3,0.3,0.3c0.2,0,0.4,0,0.7,0c2,0,4.1,0,6.1,0c0.2,0,0.4,0,0.6,0
		c0.4,0,0.5,0.1,0.5,0.4c0,0.9,0,1.8,0,2.8c0,0.2-0.1,0.3-0.3,0.3c-0.2,0-0.4,0-0.7,0c-2.1,0-4.3,0-6.4,0c-0.7,0-0.7,0-0.7,0.7
		c0,0.8,0,1.5,0,2.3c0,0.7,0,0.7,0.8,0.7c1,0,1.9,0,2.9,0c1.6,0,3.3,0,4.9,0c0.2,0,0.4,0,0.7,0c0.2,0,0.3,0.1,0.3,0.3
		c0,0.4,0,0.7,0,1.1c0,0.6,0,1.2,0,1.8c0,0.3-0.1,0.4-0.4,0.4c-0.2,0-0.3,0-0.5,0c-4.1,0-8.1,0-12.2,0c-0.2,0-0.4,0-0.6,0
		c-0.2,0-0.3-0.1-0.3-0.3c0-0.2,0-0.5,0-0.8C98.7,163.2,98.7,160.6,98.7,157.9z"/>
	<path fill="#BEF02D" d="M115.5,158c0-2.7,0-5.3,0-8c0-0.2,0-0.4,0-0.7c0-0.2,0.1-0.2,0.3-0.3c0.1,0,0.3,0,0.4,0c2.5,0,5.1,0,7.6,0
		c1.4,0,2.8,0.3,4,1c1.7,0.9,2.8,2.2,3.1,4.1c0.2,1.2,0.2,2.5-0.2,3.7c-0.5,1.4-1.4,2.5-2.8,3.2c-1.2,0.7-2.5,1-3.9,1
		c-1.1,0-2.1,0-3.2,0c-0.2,0-0.4,0-0.7,0c-0.2,0-0.3,0.1-0.3,0.3c0,0.2,0,0.4,0,0.6c0,1.1,0,2.1,0,3.2c0,0.2,0,0.4,0,0.6
		c0,0.1-0.1,0.2-0.2,0.2c-0.1,0-0.2,0-0.2,0c-1.2,0-2.3,0-3.5,0c-0.4,0-0.4-0.1-0.4-0.4c0-0.6,0-1.2,0-1.8
		C115.5,162.4,115.5,160.2,115.5,158z M120,155.5c0,0.8,0,1.7,0,2.5c0,0.3,0.1,0.4,0.4,0.4c1.1,0,2.3,0,3.4,0c0.5,0,1-0.2,1.4-0.4
		c0.7-0.3,1.1-0.8,1.3-1.5c0.1-0.5,0.2-1.1,0-1.6c-0.2-0.9-0.7-1.4-1.5-1.8c-0.4-0.2-0.9-0.3-1.4-0.3c-1.1,0-2.2,0-3.3,0
		c-0.3,0-0.4,0.1-0.4,0.4C120,153.9,120,154.7,120,155.5z"/>
	<path fill="#BEF02D" d="M150,152c-0.9,0.8-1.8,1.6-2.6,2.4c-0.2,0.1-0.3,0.1-0.4,0c-0.2-0.2-0.4-0.4-0.5-0.5
		c-2.2-2-5.9-1.7-7.7,0.2c-0.4,0.5-0.8,1-1,1.6c-0.6,1.6-0.6,3.1,0.1,4.6c0.7,1.5,1.8,2.4,3.4,2.8c2.1,0.5,4,0.1,5.5-1.5
		c0.4-0.4,0.5-0.4,0.9,0c0.7,0.6,1.4,1.2,2,1.9c0.3,0.3,0.3,0.3,0,0.7c-1.1,1.3-2.5,2.2-4.2,2.6c-2.4,0.6-4.8,0.6-7.1-0.4
		c-3-1.3-4.9-3.6-5.4-6.8c-0.5-2.8,0.1-5.4,2-7.6c1.2-1.5,2.8-2.4,4.7-2.9c2.3-0.6,4.5-0.5,6.7,0.3C147.7,149.9,149,150.8,150,152z"
		/>
	<path fill="#BEF02D" d="M72.3,231.9c4.8,0,9.6,0,14.4,0c0.3,0,0.5,0,0.8,0c0.2,0,0.3,0.1,0.3,0.3c0,0.4,0,0.9,0,1.3
		c0,0.3-0.1,0.3-0.4,0.3c-0.2,0-0.4,0-0.6,0c-9.7,0-19.3,0-29,0c-0.2,0-0.3,0-0.5,0c-0.4,0-0.5,0-0.5-0.5c0-0.4,0-0.7,0-1.1
		c0-0.4,0.1-0.4,0.5-0.4c0.2,0,0.4,0,0.7,0C62.8,231.9,67.6,231.9,72.3,231.9z"/>
	<path fill="#BEF02D" d="M194.5,233.9c-4.8,0-9.6,0-14.4,0c-1,0-0.9,0.1-0.9-0.9c0-0.3,0-0.5,0-0.8c0-0.2,0.1-0.3,0.3-0.3
		c0.2,0,0.4,0,0.7,0c9.6,0,19.3,0,28.9,0c0.1,0,0.3,0,0.4,0c0.5,0,0.6,0,0.6,0.6c0,0.3,0,0.6,0,0.9c0,0.5,0,0.5-0.5,0.5
		c-0.2,0-0.4,0-0.7,0C204,233.9,199.2,233.9,194.5,233.9z"/>
</g>
</svg>
