<?xml version="1.0" encoding="utf-8"?>
<!-- Generator: Adobe Illustrator 26.0.2, SVG Export Plug-In . SVG Version: 6.00 Build 0)  -->
<svg version="1.1" id="Calque_1" xmlns="http://www.w3.org/2000/svg" xmlns:xlink="http://www.w3.org/1999/xlink" x="0px" y="0px"
	 viewBox="0 0 55.27 51.77" enable-background="new 0 0 55.27 51.77" xml:space="preserve">
<g>
	<g>
		<g id="_x35_aL9aF.tif_00000101781392893022565430000017055849792660175271_">
			<g>
				<path fill="cmyk(0%, 0%, 0%, 100%)" d="M53.64,38.43c-0.06,0.02-0.04,0.08-0.06,0.13c-0.15,0.61-0.52,1.01-1.07,1.28c-0.57,0.27-1.17,0.34-1.8,0.31
					c-0.48-0.02-0.94-0.08-1.42-0.17c-0.13-0.02-0.21-0.08-0.23-0.23c-0.04-0.36-0.08-0.71-0.15-1.09c0.15,0.02,0.27,0.1,0.4,0.17
					c0.52,0.23,1.05,0.44,1.63,0.44c0.48,0,0.92-0.06,1.26-0.42c0.36-0.38,0.31-0.88-0.1-1.15c-0.21-0.15-0.44-0.21-0.67-0.31
					c-0.42-0.17-0.84-0.31-1.26-0.48c-0.13-0.04-0.25-0.13-0.38-0.19c-0.98-0.59-0.82-1.97-0.1-2.47c0.48-0.34,1.03-0.46,1.59-0.48
					c0.5,0,1.01,0.02,1.51,0.08c0.1,0.02,0.17,0.04,0.17,0.15c0.06,0.4,0.13,0.8,0.19,1.22c-0.21-0.1-0.4-0.21-0.59-0.31
					c-0.5-0.23-1.03-0.36-1.57-0.23c-0.15,0.04-0.29,0.08-0.42,0.17c-0.4,0.25-0.38,0.78,0.02,1.01c0.21,0.13,0.42,0.21,0.65,0.29
					c0.42,0.17,0.86,0.34,1.28,0.5c0.61,0.23,0.98,0.63,1.07,1.28c0,0.02,0.02,0.04,0.04,0.04C53.64,38.09,53.64,38.26,53.64,38.43z
					"/>
				<path fill="#1753A1" d="M21.91,14.02c0.15,0.1,0.29,0.23,0.44,0.34c0.13,0.08,0.1,0.15,0.04,0.25c-0.48,0.86-0.92,1.76-1.3,2.68
					c-0.46,1.15-0.82,2.35-0.98,3.6c-0.1,0.9-0.13,1.82,0.15,2.7c0.27,0.92,0.8,1.63,1.7,2.01c0.57,0.23,1.17,0.27,1.76,0.21
					c1.32-0.15,2.49-0.71,3.6-1.38c1.03-0.63,1.97-1.36,2.85-2.2c2.45-2.3,4.4-4.99,5.8-8.04c0.57-1.22,0.98-2.47,1.24-3.77
					c0.19-1.05,0.27-2.12,0.02-3.18c-0.15-0.63-0.42-1.19-0.88-1.65c-0.44-0.44-0.96-0.67-1.57-0.75c-0.92-0.15-1.78,0.06-2.62,0.36
					c-1.22,0.44-2.28,1.11-3.31,1.89c-1.78,1.36-3.29,2.95-4.63,4.76c-0.27,0.38-0.54,0.75-0.8,1.13c-0.08,0.1-0.15,0.15-0.27,0.15
					c-0.21,0-0.42,0-0.65,0c-0.02-0.02,0-0.04,0.02-0.08c0.82-1.24,1.65-2.47,2.64-3.6c1.65-1.91,3.58-3.48,5.78-4.69
					c1.38-0.78,2.81-1.38,4.36-1.74c0.78-0.19,1.55-0.29,2.35-0.27c0.52,0.02,1.05,0.08,1.55,0.29c0.8,0.31,1.28,0.9,1.57,1.65
					c0.27,0.71,0.38,1.47,0.4,2.24c0.04,1.82-0.31,3.58-0.86,5.3c-1.05,3.25-2.68,6.2-4.78,8.88c-0.96,1.24-2.01,2.39-3.14,3.48
					c-1.82,1.74-3.81,3.25-6.08,4.36c-1.09,0.54-2.22,0.96-3.41,1.19c-0.98,0.19-1.95,0.23-2.93-0.04c-1.45-0.4-2.24-1.38-2.51-2.83
					c-0.17-0.82-0.13-1.65-0.02-2.47c0.27-2.05,0.98-3.96,1.82-5.82c0.73-1.63,1.61-3.21,2.56-4.73
					C21.78,14.15,21.8,14.06,21.91,14.02z"/>
				<path fill="#1F1F43" d="M35.75,1.79c-2.33-0.1-4.46,0.59-6.49,1.68c-1.68,0.9-3.18,2.03-4.55,3.35
					c-1.57,1.53-2.89,3.25-3.96,5.15c-0.86,1.57-1.53,3.23-1.86,5.01c-0.04,0.21-0.08,0.44-0.1,0.65c-0.02,0.19-0.08,0.36-0.17,0.54
					c-0.71,1.53-1.34,3.1-1.74,4.73c-0.27,1.07-0.44,2.18-0.42,3.29c0.02,1.07,0.23,2.07,0.82,2.97c0.02,0.02,0.02,0.04,0.02,0.06
					l0,0c-0.13,0.02-0.17-0.06-0.25-0.13c-0.69-0.57-1.19-1.28-1.59-2.07c-0.46-0.96-0.73-1.99-0.9-3.04
					c-0.1-0.73-0.17-1.47-0.17-2.2c0-0.88,0.06-1.76,0.19-2.62c0.27-1.91,0.8-3.73,1.55-5.49c1.09-2.51,2.62-4.76,4.55-6.7
					c1.45-1.45,3.04-2.68,4.84-3.65c1.61-0.86,3.31-1.49,5.11-1.78c1.72-0.27,3.41-0.27,5.11,0.19C35.75,1.75,35.75,1.77,35.75,1.79
					z"/>
				<path fill="#E73B1C" d="M21.76,13.46c0.13,0,0.21,0,0.31,0c1.24,0,2.47,0,3.71,0c0.27,0,0.27,0,0.36-0.25
					c0.38-1.17,0.75-2.35,1.13-3.52c0.02-0.1,0.02-0.27,0.13-0.27c0.13,0,0.13,0.17,0.15,0.27c0.4,1.17,0.78,2.37,1.15,3.56
					c0.04,0.15,0.13,0.21,0.27,0.21c1.26,0,2.51,0,3.77,0c0.08,0,0.19,0,0.27,0c0.02,0.13-0.08,0.15-0.15,0.19
					c-1.01,0.73-2.03,1.49-3.06,2.22c-0.25,0.19-0.23,0.1-0.15,0.42c0.38,1.19,0.78,2.37,1.15,3.56c0.02,0.08,0.13,0.19,0.04,0.25
					c-0.08,0.06-0.15-0.04-0.23-0.1c-1.03-0.73-2.03-1.49-3.06-2.22c-0.19-0.15-0.19-0.15-0.4,0c-1.01,0.73-2.01,1.47-3.04,2.2
					c-0.06,0.04-0.15,0.17-0.23,0.1s0.02-0.17,0.04-0.25c0.4-1.22,0.78-2.41,1.17-3.62c0.04-0.13,0.02-0.21-0.08-0.27
					c-1.03-0.73-2.05-1.49-3.1-2.24C21.88,13.62,21.8,13.58,21.76,13.46z"/>
				<path fill="cmyk(0%, 0%, 0%, 100%)" d="M24.08,40c-0.71-1.47-1.38-2.87-2.07-4.29c-0.15,0.59-0.54,3.81-0.34,4.27c-0.48,0-0.94,0-1.42,0
					c0.31-0.78,0.42-1.61,0.54-2.43c0.17-1.01,0.27-2.01,0.38-3c0.02-0.25,0-0.48-0.19-0.73c0.34,0,0.65,0.02,0.94,0
					c0.34-0.04,0.5,0.08,0.63,0.4c0.48,1.05,1.01,2.09,1.51,3.14c0.02,0.04,0.02,0.08,0.08,0.1c0.13-0.27,0.27-0.54,0.4-0.82
					c0.42-0.88,0.84-1.76,1.26-2.64c0.06-0.13,0.13-0.19,0.29-0.19c0.38,0.02,0.78,0,1.19,0c-0.29,0.31-0.23,0.69-0.21,1.05
					c0.06,0.96,0.15,1.93,0.29,2.89c0.08,0.59,0.17,1.15,0.34,1.72c0.04,0.17,0.13,0.34,0.21,0.5c-0.48,0-0.96,0-1.45,0
					c0.13-0.69,0.02-1.38-0.04-2.07s-0.17-1.36-0.27-2.05c0-0.02,0-0.06-0.06-0.1C25.45,37.17,24.78,38.55,24.08,40z"/>
				<path fill="cmyk(0%, 0%, 0%, 100%)" d="M39.13,40.1c-1.13,0-2.01-0.34-2.7-1.11c-0.44-0.48-0.69-1.07-0.73-1.74c-0.04-0.69,0.02-1.34,0.38-1.95
					c0.44-0.75,1.05-1.24,1.89-1.47c1.01-0.25,1.97-0.23,2.89,0.29c1.19,0.67,1.76,1.72,1.61,3.08c-0.15,1.3-0.88,2.2-2.12,2.66
					C39.9,40.06,39.48,40.12,39.13,40.1z M41.26,36.86c0-0.52-0.15-0.98-0.44-1.4c-0.44-0.61-1.07-0.86-1.78-0.88
					c-0.8-0.02-1.45,0.29-1.86,1.01c-0.38,0.65-0.42,1.36-0.23,2.07c0.46,1.78,2.43,1.93,3.44,1.15
					C41.01,38.3,41.26,37.63,41.26,36.86z"/>
				<path fill="cmyk(0%, 0%, 0%, 100%)" d="M46.9,33.84c0.59,0,1.11,0,1.65,0c0,0.02,0.02,0.04,0.02,0.04c-0.19,0.25-0.25,0.52-0.25,0.84c0,1.07,0,2.16,0,3.23
					c0,0.65,0,1.32,0,2.03c-0.48-0.48-0.92-0.98-1.36-1.45c-0.44-0.48-0.9-0.96-1.34-1.45c-0.44-0.48-0.9-0.96-1.36-1.47
					c0,0.08-0.02,0.15-0.02,0.21c0,1.11,0,2.2,0,3.31c0,0.31,0.02,0.61,0.27,0.86c-0.57,0-1.11,0-1.65,0
					c0.23-0.25,0.25-0.57,0.25-0.88c0-1.47,0-2.93,0-4.4c0-0.31-0.02-0.61-0.27-0.88c0.42,0,0.82,0,1.19,0
					c0.1,0,0.15,0.08,0.19,0.13c0.9,1.01,1.8,2.01,2.72,3.04c0.06,0.08,0.15,0.15,0.25,0.27c0-0.1,0-0.17,0-0.23
					c0-0.8,0-1.59,0-2.39C47.19,34.36,47.15,34.09,46.9,33.84z"/>
				<path fill="cmyk(0%, 0%, 0%, 100%)" d="M8.83,39.98c-0.57,0-1.07,0-1.59,0c0-0.02-0.02-0.04,0-0.04c0.21-0.29,0.21-0.61,0.21-0.94c0-1.38,0-2.77,0-4.15
					c0-0.06,0-0.1,0-0.17c0-0.31-0.02-0.61-0.31-0.84c0.59,0,1.13,0,1.7,0c-0.25,0.29-0.25,0.63-0.25,0.98c0,0.42,0,0.82,0,1.24
					c0,0.1,0.02,0.15,0.15,0.15c0.9,0,1.8,0,2.68,0c0.13,0,0.17-0.02,0.17-0.17c0-0.48,0-0.96,0-1.42c0-0.29-0.08-0.54-0.31-0.78
					c0.59,0,1.11,0,1.7,0c-0.29,0.36-0.25,0.78-0.25,1.17c0,1.3,0,2.62,0,3.92c0,0.36,0.02,0.71,0.27,1.05c-0.59,0-1.13,0-1.7,0
					c0.36-0.44,0.29-0.96,0.29-1.49c0-0.23,0-0.48,0-0.71c0-0.15,0-0.31,0-0.46c0-0.25,0.04-0.25-0.23-0.25c-0.73,0-1.45,0-2.18,0
					c-0.19,0-0.44-0.08-0.57,0.04c-0.1,0.1-0.02,0.36-0.02,0.54c0,0.46,0,0.9,0,1.36C8.54,39.37,8.56,39.68,8.83,39.98z"/>
				<path fill="cmyk(0%, 0%, 0%, 100%)" d="M30.35,42.32c-0.25,0.23-0.25,0.5-0.25,0.8c0,1.03,0,2.03,0,3.06c0,0.29-0.02,0.57-0.08,0.86
					c-0.15,0.63-0.52,1.05-1.11,1.3c-0.48,0.21-1.01,0.25-1.53,0.25c-0.46,0-0.94-0.04-1.38-0.21c-0.75-0.27-1.17-0.8-1.28-1.59
					c-0.06-0.48-0.02-0.96-0.04-1.45c-0.02-0.75,0-1.49,0-2.24c0-0.29-0.02-0.57-0.27-0.78c0.57,0,1.11,0,1.65,0
					c-0.25,0.25-0.25,0.57-0.25,0.88c0,0.92,0,1.84,0,2.77c0,0.17,0.02,0.34,0.04,0.48c0.06,0.5,0.34,0.84,0.82,0.98
					c0.48,0.15,0.96,0.15,1.42,0c0.5-0.17,0.78-0.52,0.84-1.05c0.02-0.29,0.02-0.61,0.02-0.92c0-0.82,0-1.63,0-2.45
					c0-0.25-0.02-0.5-0.27-0.71C29.26,42.32,29.78,42.32,30.35,42.32z"/>
				<path fill="#1F1F43" d="M28.29,29.02c0.86-0.52,1.65-1.11,2.41-1.72c2.53-2.07,4.69-4.52,6.56-7.23
					c1.42-2.07,2.64-4.27,3.54-6.62c0.38-0.96,0.67-1.95,0.9-2.95c0.04,0.42,0,0.84-0.06,1.24c-0.36,2.68-1.38,5.11-2.74,7.42
					c-1.22,2.07-2.7,3.96-4.42,5.66c-1.49,1.47-3.1,2.74-4.94,3.71c-0.31,0.17-0.65,0.31-0.96,0.46
					C28.46,29.02,28.4,29.06,28.29,29.02z"/>
				<path fill="cmyk(0%, 0%, 0%, 100%)" d="M19.85,40c-0.52,0-1.05,0-1.59,0c0.17-0.4-0.06-0.71-0.19-1.03c-0.13-0.31-0.25-0.61-0.38-0.9
					c-0.04-0.1-0.1-0.15-0.21-0.15c-0.63,0-1.26,0-1.86,0c-0.13,0-0.17,0.04-0.21,0.15c-0.19,0.44-0.36,0.88-0.54,1.32
					c-0.06,0.17-0.08,0.34-0.06,0.5c0,0.08-0.02,0.13-0.13,0.13c-0.44,0-0.88,0-1.36,0c0.52-0.5,0.67-1.17,0.94-1.78
					c0.57-1.28,1.11-2.56,1.65-3.83c0.08-0.19,0.1-0.36-0.1-0.54c0.44,0,0.82,0,1.19,0c0.13,0,0.13,0.08,0.15,0.17
					c0.23,0.52,0.46,1.05,0.69,1.57c0.52,1.17,1.05,2.37,1.57,3.54c0.1,0.23,0.23,0.44,0.36,0.65C19.79,39.83,19.85,39.89,19.85,40z
					 M17.23,37.04c-0.23-0.54-0.46-1.07-0.71-1.61c-0.25,0.57-0.48,1.09-0.71,1.61C16.29,37.04,16.75,37.04,17.23,37.04z"/>
				<path fill="cmyk(0%, 0%, 0%, 100%)" d="M31,42.34c1.05,0,2.07-0.06,3.1,0.02c0.84,0.08,1.57,0.63,1.76,1.38c0.42,1.61-0.63,2.64-1.99,2.7
					c-0.65,0.02-1.11-0.31-1.34-0.98c0.52,0.31,1.03,0.25,1.53,0c0.5-0.25,0.78-0.75,0.69-1.28c-0.08-0.54-0.48-0.96-1.05-1.03
					c-0.42-0.04-0.86,0-1.28,0c0,0.08,0,0.17,0,0.23c0,1.47,0.02,2.93,0,4.42c0,0.25,0.13,0.44,0.21,0.67c-0.54,0-1.07,0-1.65,0
					c0.34-0.36,0.27-0.78,0.27-1.19c0-1.34,0-2.66,0-4C31.25,42.95,31.25,42.62,31,42.34z"/>
				<path fill="cmyk(0%, 0%, 0%, 100%)" d="M28.29,33.84c0.96,0,1.89,0,2.81,0c0.34,0,0.67,0.06,0.98,0.21c0.88,0.4,1.3,1.17,1.19,2.14
					c-0.15,1.34-1.47,1.89-2.33,1.76c-0.5-0.08-0.9-0.42-1.05-0.94c0.5,0.31,1.03,0.23,1.51-0.02c0.52-0.25,0.8-0.84,0.65-1.36
					c-0.15-0.59-0.61-0.94-1.22-0.94c-0.31,0-0.63,0-0.94-0.02c-0.15,0-0.19,0.04-0.19,0.19c0.02,0.73,0.02,1.49,0.02,2.22
					c0,0.78,0.02,1.55,0.02,2.33c0,0.21,0,0.42,0.21,0.61c-0.59,0-1.11,0-1.63,0c-0.02-0.06,0.04-0.1,0.06-0.15
					c0.13-0.19,0.17-0.4,0.17-0.63c0-1.55,0-3.1,0-4.63C28.57,34.3,28.5,34.05,28.29,33.84z"/>
				<path fill="cmyk(0%, 0%, 0%, 100%)" d="M6.38,35.01c-0.31-0.1-0.61-0.25-0.9-0.31c-0.59-0.15-1.17-0.13-1.74,0.08c-0.57,0.21-0.98,0.59-1.17,1.15
					c-0.31,0.88-0.27,1.74,0.38,2.49c0.38,0.44,0.9,0.63,1.47,0.73c0.69,0.13,1.36-0.04,1.99-0.31c0.13-0.06,0.23-0.1,0.38-0.17
					c-0.02,0.21-0.08,0.4-0.13,0.61c-0.04,0.19-0.1,0.36-0.15,0.54c-0.02,0.1-0.08,0.15-0.17,0.17c-1.03,0.17-2.03,0.21-3.02-0.15
					c-0.94-0.34-1.7-0.94-1.99-1.93c-0.46-1.61,0.08-3.08,1.72-3.83c0.61-0.27,1.24-0.38,1.89-0.34c0.4,0.02,0.8,0.04,1.17,0.04
					c0.1,0,0.15,0.04,0.17,0.15C6.3,34.28,6.34,34.64,6.38,35.01z"/>
				<path fill="cmyk(0%, 0%, 0%, 100%)" d="M24.06,47.18c-0.08,0.34-0.17,0.65-0.23,0.94c-0.04,0.25-0.15,0.36-0.42,0.38c-1.01,0.13-2.01,0.15-2.95-0.23
					c-0.75-0.29-1.36-0.8-1.72-1.53c-0.13-0.25-0.21-0.54-0.25-0.82c-0.13-1.03,0.06-1.95,0.84-2.68c0.54-0.52,1.22-0.84,1.95-0.96
					c0.5-0.08,1.01-0.04,1.53-0.02c0.21,0,0.42,0.02,0.61,0.02c0.06,0,0.13,0,0.15,0.1c0.04,0.38,0.08,0.75,0.13,1.15
					c-0.23-0.08-0.42-0.17-0.61-0.23c-0.65-0.23-1.32-0.27-1.97-0.04c-0.67,0.23-1.11,0.69-1.32,1.36
					c-0.23,0.75-0.17,1.49,0.31,2.16c0.38,0.52,0.94,0.75,1.57,0.88c0.67,0.13,1.3,0,1.93-0.27C23.73,47.31,23.87,47.23,24.06,47.18
					z"/>
				<path fill="cmyk(0%, 0%, 0%, 100%)" d="M35.29,39.98c-0.57,0-1.09,0-1.65,0c0.31-0.42,0.25-0.88,0.25-1.34c0-1.32,0-2.64,0-3.96c0-0.31,0-0.61-0.29-0.86
					c0.59,0,1.13,0,1.7,0c-0.08,0.15-0.23,0.25-0.23,0.42c-0.02,0.17-0.02,0.34-0.02,0.48c0,1.42,0,2.85,0,4.25
					C35.04,39.35,35.04,39.68,35.29,39.98z"/>
				<path fill="cmyk(0%, 0%, 0%, 100%)" d="M12.94,45.65c-1.22,0-2.41,0-3.62,0c-0.29,0-0.27,0.02-0.27-0.27c0-0.06,0-0.1,0-0.17c0-0.06,0.04-0.08,0.08-0.08
					c0.06,0,0.1,0,0.17,0c2.41,0,4.84,0,7.25,0c0.04,0,0.08,0,0.13,0c0.02,0,0.06,0,0.06,0c0.15,0.08,0.04,0.23,0.06,0.36
					c0.02,0.06,0.02,0.17-0.08,0.17c-0.06,0-0.13,0-0.19,0C15.35,45.65,14.13,45.65,12.94,45.65z"/>
				<path fill="cmyk(0%, 0%, 0%, 100%)" d="M41.47,45.65c-1.22,0-2.41,0-3.62,0c-0.29,0-0.27,0.02-0.27-0.27c0-0.04,0-0.1,0-0.15c0-0.08,0.04-0.13,0.13-0.1
					c0.04,0,0.1,0,0.15,0c2.41,0,4.84,0,7.25,0c0.04,0,0.08,0,0.13,0c0.02,0,0.06,0,0.06,0c0.15,0.08,0.04,0.23,0.06,0.36
					c0.02,0.06,0.02,0.17-0.08,0.17c-0.06,0-0.13,0-0.19,0C43.86,45.65,42.67,45.65,41.47,45.65z"/>
				<path fill="#1753A1" d="M35.75,1.79c0-0.02,0-0.04,0-0.06c0.06,0.02,0.13,0.02,0.21,0.04C35.88,1.83,35.82,1.81,35.75,1.79z"/>
				<path fill="#1F1F43" d="M17.28,29.25c0.02,0,0.02,0.02,0.04,0.02c0,0-0.02,0.02-0.02,0C17.28,29.27,17.28,29.25,17.28,29.25
					L17.28,29.25z"/>
			</g>
		</g>
	</g>
</g>
</svg>
