<?xml version="1.0" encoding="utf-8"?>
<!-- Generator: Adobe Illustrator 23.1.1, SVG Export Plug-In . SVG Version: 6.00 Build 0)  -->
<svg version="1.1" id="Layer_1" xmlns="http://www.w3.org/2000/svg" xmlns:xlink="http://www.w3.org/1999/xlink" x="0px" y="0px"
	 width="1010.53px" height="1195.3px" viewBox="0 0 1010.53 1195.3" enable-background="new 0 0 1010.53 1195.3"
	 xml:space="preserve">
<path fill="#000038" d="M650.34,3.63C572.6-15.24,434.4,37.97,339.32,198.76c46.13-63.02,104.28-100.8,158.86-118.5
	c17.54-6.12,81.34-26.07,131.82-0.86c33.653,16.807,33.667,16.813,0.04,0.02c1.98,0.84,3.94,1.73,5.78,2.85
	c2.74,1.68,5.47,3.55,8.15,5.6c18.25,13.23,33.68,33.98,42.88,65.67c0.04,0.13,0.07,0.24,0.11,0.37
	c9.7,31.84,12.15,72.68,1.87,122.26C662.52,403.04,576.9,460.31,526.82,455.14c-35.42-3.66-75.15-40.87-86.1-107.17l115.53-69.14
	H433.97c-1.04-61.22,7.11-116.89,7.15-117.38v-0.65c-28.7,32.68-56.26,80.07-75.86,118.03H247.88l90.24,67.61
	c-31.44,110.82-3.92,215.85,40.62,261.85c-62.03-24.65-119.89-98.88-114.67-207c-25.92,160.56,45.4,262.72,120.04,280.82
	c90.78,22.04,266.66-60.8,354.79-285.43c89.63-228.46,2.2-371.03-88.58-393.07L650.34,3.63z M704.64,367.89
	c-53.52,150.78-159.56,217.13-230.66,204.63c-45.94-8.06-111.28-59.41-85.23-176.95c6.57,75.78,47.96,121.52,89.03,129.41
	C538.5,536.64,652.16,476,703.43,324.21c17.63-52.21,21.78-87,21.78-134.45c0,0,0,0.02,0.02,0.04c0.41,0.69,18.94,66.74-20.58,178.1
	L704.64,367.89z"/>
<path fill="#000038" d="M484.7,771.81h-37.55l-0.02,9.08h4.94c2.95,0,3.65,1.27,2.88,2.83c0,0-4.25,8.14-11.25,21.96
	c-4.4,8.69-9.04,17.89-11.63,23l-22.33-44.96c-0.87-1.91,0.41-2.85,2.61-2.85h4.89v-9.07h-49.09l-0.02,9.07h2.9
	c3.54,0,5.92,1.04,9.09,6.74l46.22,86.47l47.71-88.05c2.01-3.45,4.54-5.13,7.77-5.13h2.85v-9.1L484.7,771.81z"/>
<path fill="#000038" d="M184.53,739.61h2.32c2.74,0.04,4.51,1.03,4.59,1.75v118.39c-0.08,0.73-1.9,1.76-4.74,1.76h-2.19l0.02,9.15
	h41.78v-9.17h-2.22c-2.78-0.01-4.56-1.02-4.66-1.73V741.35c0.1-0.71,1.85-1.7,4.58-1.74h2.29v-9.1h-41.78v9.1L184.53,739.61z"/>
<path fill="#000038" d="M356.33,859.79l0.02-59.92c0-20.16-19.69-30.74-39.13-30.74c-13.07,0-24.14,5.83-30.29,9.9v-4.98
	c0-3.55-2.26-6.23-5.28-6.23c-0.6,0-1.2,0.12-1.79,0.35l-0.34,0.14c-1.58,0.55-7.02,2.6-27.95,10.57l-1.17,0.46l-0.02,9.22
	l1.94-0.17c0,0,0.24-0.02,0.58-0.02c2.66,0,5.82,0.8,5.82,4.57v66.79c-0.04,0.68-1.65,1.63-4.18,1.77h-2.73v9.18h41.85v-9.18h-2.76
	c-2.37-0.13-3.91-0.97-4.13-1.62v-63.53c4.48-3.86,12.36-7.66,20.24-7.66c14.71,0,21.28,5.59,21.28,18.09v52.95
	c-0.02,0.66-1.63,1.63-4.19,1.77h-2.74v9.18h41.88v-9.18h-2.75c-2.45-0.13-4.01-1.01-4.14-1.69L356.33,859.79z"/>
<path fill="#000038" d="M848.45,769.13c-37.16,0-57.64,25.77-58.02,50.01c0,29.86,23.59,51.52,56.11,51.52
	c28,0,40.38-10.95,47.03-16.83l1.75-1.77c0,0,0.01-16.06,0.04-16.54l-4.48,3.19c-9.09,6.29-19.39,13.44-37.31,13.44
	c-24.42,0-33.43-20.35-33.53-34.01V817h77.02v-4.13c0-30.05-25.2-43.74-48.62-43.74H848.45z M822.12,801.65
	c2.16-6.99,7.97-17.36,23.48-17.36c4.5,0,19.08,1.27,21.27,17.36H822.12z"/>
<path fill="#000038" d="M968.51,784.21c16.08,0,28.15,10.42,30.79,18.52l11.23-0.02v-23.48l-0.91-0.54
	c-0.17-0.1-17.25-10.16-39.9-10.16c-43.96,0-60.34,31.46-60.34,51.27c0,4.06,0.58,8.29,1.72,12.6v0.03l0.05,0.14l0.04,0.21
	c0.12,0.67,0.41,1.55,1.11,3.56c1.9,5.37,4.7,10.37,8.32,14.84c4.03,5.05,8.98,9.2,14.72,12.33c6.81,3.75,14.49,6.01,22.87,6.7
	c0.2,0,8.09,0.46,8.09,0.46c15.55,0,33.61-7.8,44.17-18.63c0,0,0.02-12.85,0.04-13.31v-3.23c-1.28,0.83-5.06,3.61-6.49,4.56
	c-7.47,5.07-15.81,11.03-31.44,11.03c-23.18,0-33.55-17-33.55-33.84c0-15.93,9.22-33.07,29.46-33.07L968.51,784.21z"/>
<path fill="#000038" d="M762.58,853.48c-15.49,0-17.47-8.29-17.47-15.52v-50.31h33.07v-16.22h-32.6v-17.61l-28.47-0.04l0.02,17.72
	H704l-0.02,16.14h13.17v50.51c0,23.24,19.01,31.52,36.8,31.52c15.8,0,27.07-11.27,27.54-11.76l0.56-0.56v-11.63l-2.77,1.67
	c-2.85,1.68-11.4,6.07-16.68,6.07L762.58,853.48z"/>
<path fill="#000038" d="M541.53,769.13c-37.16,0-57.64,25.77-58.03,50.01c0,29.86,23.6,51.52,56.11,51.52
	c28.01,0,40.39-10.95,47.04-16.83l1.75-1.77c0,0,0.01-16.06,0.05-16.54l-4.49,3.19c-9.09,6.29-19.39,13.44-37.32,13.44
	c-24.4,0-33.42-20.35-33.53-34.01V817h77.04v-4.13C590.15,782.82,564.94,769.13,541.53,769.13L541.53,769.13z M515.19,801.65
	c2.16-6.99,7.97-17.36,23.48-17.36c4.5,0,19.07,1.27,21.28,17.36H515.19z"/>
<path fill="#000038" d="M655.25,807.44c-11.74-4.15-21.88-7.74-21.88-15.38c0-5.8,7.35-8.83,14.61-8.83
	c22.49,0,22.54,7.69,23.77,13.49l10.27,0.02l-0.39-20.97l-1.03-0.49c-0.14-0.07-13.92-6.57-29.99-6.57
	c-29.96,0-40.84,17.48-40.84,29.21c0,19.9,16.78,26.27,31.57,31.85c10.91,4.11,20.34,7.67,20.34,15.43c0,4.74-4.03,9.8-15.37,9.8
	c-21.51,0-24.86-9.79-26.65-15.02c-0.25-0.7-0.46-1.31-0.67-1.81l-0.47-1.1h-1.15c-0.18,0-0.27,0-6.35,1.13l-1.58,0.3l1.46,22.95
	l0.92,0.5c0.14,0.06,14.51,7.61,31.91,7.61c30.82,0,44.86-15.97,44.86-30.8c0-19.51-17.71-25.76-33.34-31.29L655.25,807.44z"/>
<path fill="#000038" d="M111.38,786.54h21.55l-0.14-0.5c-5.53-20.34-23.33-36.42-45.33-40.93l-0.32-0.07v16.26
	c11.33,4.05,20.33,13.41,24.25,25.23"/>
<path fill="#000038" d="M66.15,839.48c-15.85-2.71-28.46-15.85-31.1-32.44h31.1V839.48z M78.36,730.5H66.15v16.13
	c-24.19,2.39-44.36,18.6-50.32,40.57l-0.13,0.48h20.82c4.49-13.61,16-23.72,29.63-26.07v32.5H0v12.94h14.52
	c3.2,25.08,24.72,44.89,51.63,47.5v16.1h12.21v-63.6h31.17c-2.25,14.28-11.98,26.29-25.07,30.95v15.64l0.31-0.05
	c24.22-4.92,42.3-23.59,45.23-46.54h14.55v-12.94H78.37V730.5L78.36,730.5z"/>
<path fill="#000038" d="M142.15,957.11c15.75,0.02,41.62,0.02,57.88,0.02c0-2.09,0-21.68,0.03-30.22c0.02-5.66-0.85-11.2-6-15.75
	h32.53c-4.5,5.66-4.99,11.84-4.99,18.4v82.64c0,6.07,0.97,12.12,5.39,17.47H194.1c4.78-4.91,5.95-11.24,5.94-17.35
	c-0.02-12.58,0-26.36,0-38.88h-57.89c0,2.52,0.07,28.82-0.06,40.32c-0.06,5.63,0.69,11.26,5.42,15.91c-1.78,0-21.77-0.04-31.37-0.04
	c1.52-3.05,3.33-5.55,4.04-8.36c0.71-2.75,0.41-5.82,0.41-8.77c0.02-28.33,0-56.7,0.02-85.04c0-5.82,0.16-11.44-5.85-16.27
	l32.25,0.05c-4.89,5.14-4.99,10.8-4.92,16.82v29.06h0.06V957.11z"/>
<path fill="#000038" d="M351.2,1013.35c-10.38-23.29-40.24-91.46-44.92-102.15h-24.12c3.25,3.13,3.41,5.98,1.86,9.35
	c-1.66,3.57-25.15,59.42-35.97,83.42c-3.84,8.6-6.18,18.74-14.58,25.71h28.32c-0.36-4.2-0.59-7.57,0.51-10.5
	c4.04-10.3,12.4-29.75,12.4-29.75H317c0,0,10.34,24.08,12.91,31.09c0.91,2.46-0.28,6.1-0.67,9.15c9.86,0,30.82,0.04,31.02,0
	c-2.93-5.31-6.58-10.81-9.07-16.32L351.2,1013.35z M281.68,973.11c4.75-11.21,9.23-20.44,14.1-32.08
	c4.91,11.45,9.11,20.56,14.1,32.08H281.68z"/>
<path fill="#000038" d="M477.11,911.25h26.59c-3.78,4.19-4.4,7.15-4.21,13.08c0.29,9.03,5.63,91.05,16.39,105.37h-28.26
	c3.71-6.51-1.07-46.73-2.9-60.19c-1.04-7.53-2.31-15.02-3.64-23.42c-13.17,28.54-25.9,54.17-39.43,83.46
	c-7.54-15.03-33.84-69.59-40.63-84.13c-0.2,0.79-0.76,4.83-0.94,6.08c-1.44,10.55-2.38,21.15-3.72,31.71
	c-1.28,10.03-4.65,39.82-1.18,46.49c-4.67,0-22.5,0-28.18,0c7.95-6.98,17.26-94.27,18.45-105.37c0.48-4.62,0.16-9.09-3.66-13.19
	h26.57c11.26,23.92,22.57,45.91,34.43,71.18l34.3-71.06l0,0L477.11,911.25z"/>
<path fill="#000038" d="M62.19,1013.86c-14.37-2.61-26.17-8.65-33.85-21.54c-3.06-5.16-4.33-10.91-5.03-16.7
	c-2.18-17.77,5.11-39.28,27.54-46.98c14.2-4.89,28.26-3.53,41.97,2.33c2.08,0.88,4.19,1.66,7.45,2.94
	c-0.89-8.16-1.64-15.18-2.57-23.58c-10.48-0.41-20.3-0.91-30.14-1.19c-11.09-0.35-21.74,2.14-31.73,6.76
	c-15.84,7.29-27.89,18.45-33.41,35.59c-2.51,7.78-2.63,15.73-2.28,23.74c0.56,13.28,5.29,24.85,14.56,34.51
	c13.21,13.79,29.84,20.07,48.43,21.46c12.49,0.95,25.07,0.67,38.4-2.3c1.94-7.54,4.03-15.65,6.33-24.52
	c-2.13,0.94-3.52,1.51-4.86,2.16c-12.89,6.31-26.14,9.94-40.81,7.3V1013.86z"/>
<path fill="#000038" d="M769.01,920.43c-19.17-12.87-40.09-14.34-61.95-8.16c-17.78,4.99-29.95,16.52-37.55,33.15
	c-4.2,9.23-4.79,18.97-4.71,28.88c0.16,15.29,6.02,28.08,16.56,38.58c12.36,12.32,28.2,19.05,48.09,19.05
	c11.49,0,20.87-2.14,30.22-6.3c8.16-3.6,15.41-9.03,21.15-15.84c1.43-1.7,2.85-3.53,4.08-5.47c17.47-25.75,14.3-63.65-15.88-83.89
	H769.01z M772.5,974.02c-1.03,12.08-5.07,22.78-14.5,31.01c-7.05,6.26-15.25,9.55-24.6,10.18c-9.23,0.67-18.14-0.79-26.1-5.66
	c-14.26-8.6-20.4-25.23-19.92-41.39c0.2-7.33,1.43-14.54,4.95-21.11c7.72-14.62,20.24-21.55,36.48-21.55s29.51,6.26,37.95,20.84
	c4.95,8.56,6.54,17.98,5.74,27.69L772.5,974.02z"/>
<path fill="#000038" d="M886.56,925.54c-0.13,6.69,0,52.36,0,52.36c-20.74-22.97-39.27-43.96-59.83-66.73h-23.91
	c4.85,5.01,5.23,10.67,5.2,16.58c-0.08,28.87-0.05,57.09,0.07,85.99c0,5.51-0.62,11.65-5.27,16.04h32.43
	c-4.8-3.88-5.58-10.29-5.57-16.04c0.02-23.29,0-44.09,0-69.24c27.61,30.29,50.38,54.15,78.45,84.83v-7.72
	c0-30.47-0.05-60.99,0.06-91.49c0-6.62,0.1-13.36,5.79-18.84l-32.73-0.11c4.59,4.27,5.44,9.11,5.31,14.38V925.54z"/>
<path fill="#000038" d="M992.61,965.85c-7.18-2.95-14.46-5.55-21.64-8.48c-6.18-2.54-12.45-4.98-18.34-8.08
	c-5.42-2.82-7.52-8.52-5.81-13.56c1.62-4.78,5.36-7.44,9.81-8.77c6.75-2,13.6-2.33,20.65-0.89c8.5,1.74,16.03,5.41,24.16,10.37
	c-0.7-6.43-3.13-22.65-3.8-25.72c-6.25-0.64-12.32-1.53-18.43-1.81c-6.44-0.31-12.94-0.26-19.37,0.14
	c-9.03,0.57-17.29,3.75-24.62,8.98c-9.34,6.62-13.22,19.54-10.51,30.81c2.47,10.37,9.94,15.68,18.59,19.69
	c7.02,3.25,14.45,5.6,21.63,8.47c5.24,2.06,10.63,3.87,15.48,6.62c9.31,5.32,10.65,16.53,2.73,23.73
	c-3.25,2.96-7.46,5.56-11.75,6.55c-22.52,5.18-42.88-7.32-51.07-10.71c1.12,8.02,2.2,16.18,3.34,24.61
	c13.71,3.3,26.68,4.67,39.89,4.29c8.18-0.21,15.97-1.81,23.4-4.99c9.67-4.14,17.42-10.23,21.34-20.63
	c5.79-15.38,0.18-34.13-15.69-40.62H992.61z"/>
<path fill="#000038" d="M597.25,916.23c-6.92-3.53-14.45-4.69-22.06-4.85c-11.11-0.28-33.28-0.18-33.28-0.18h-19.34
	c5.05,4.81,5.62,9.45,5.59,14.98c-0.11,29.17-0.1,58.33,0,87.52c0.03,5.61-0.88,11.39-5.44,15.94h31.73
	c-2.53-3.39-3.91-2.89-3.91-15.95c0-1.91-0.32-85.33-0.32-86.78l21.98,0.08c0,0,19.86-0.22,23.41,20.23
	c1.53,8.82-3.27,18.85-11.53,23.66c-8.22,4.75-16.32,5.97-25.21,3.91c-3.14-0.73-5.27-3.02-6.24-3.64
	c4.11,11.85,13.65,22.85,35.39,18.11c0,0,1.22-0.31,1.83-0.51c19.42-6.58,28.85-19.63,28.44-39.78
	c-0.33-15.22-7.68-25.89-21.05-32.74H597.25z"/>
<path fill="#000038" d="M562.58,1074.59c-4.99,3.82-5.23,8.73-5.27,14.04c0,11.14-0.12,51.33-0.12,62.67c0,19.51-6.52,44-51.93,44
	s-51.93-24.5-51.93-44c0-11.34-0.12-51.53-0.12-62.67c-0.04-5.31-0.28-10.22-5.27-14.04h32.38c-4.75,3.7-5.35,8.61-5.31,13.92
	c0.04,20.15,0.16,40.67,0.16,60.86c0,16.53,10.22,26.19,30.09,25.94c19.87,0.24,30.09-9.41,30.09-25.94
	c0-20.19,0.12-40.71,0.16-60.86c0.04-5.31-0.56-10.22-5.31-13.92H562.58z"/>
<rect x="701.67" y="1128.9" fill="#000038" width="149.3" height="9.6"/>
<rect x="152.16" y="1128.9" fill="#000038" width="149.3" height="9.6"/>
<path fill="#000038" d="M648.75,1079.82c-6.92-3.53-14.45-4.69-22.06-4.85c-11.11-0.28-33.28-0.18-33.28-0.18h-19.34
	c5.05,4.81,5.62,9.45,5.59,14.98c-0.11,29.17-0.1,58.33,0,87.52c0.03,5.61-0.88,11.39-5.44,15.94h31.73
	c-1.33-3.32-3.78-6.87-3.87-10.02c-0.06-1.91-0.17-5.66-0.17-5.66s-0.19-85.59-0.19-87.05l21.98,0.08c0,0,19.86-0.22,23.41,20.23
	c1.53,8.82-3.27,18.85-11.53,23.66c-8.22,4.75-16.32,5.97-25.21,3.91c-3.14-0.73-5.27-3.02-6.24-3.64
	c4.11,11.85,13.65,22.85,35.39,18.11c0,0,1.22-0.31,1.83-0.51c19.42-6.58,28.85-19.63,28.44-39.78
	c-0.33-15.22-7.68-25.89-21.05-32.74L648.75,1079.82z"/>
<path fill="#000038" d="M395.5,1177.44c-14.37-2.61-26.17-8.65-33.85-21.54c-3.06-5.16-4.33-10.91-5.03-16.7
	c-2.18-17.77,5.11-39.28,27.54-46.98c14.2-4.89,28.26-3.53,41.97,2.33c2.08,0.88,4.19,1.66,7.45,2.94
	c-0.89-8.16-1.64-15.18-2.57-23.58c-10.48-0.41-20.3-0.91-30.14-1.19c-11.09-0.35-21.74,2.14-31.73,6.76
	c-15.84,7.29-27.89,18.45-33.41,35.59c-2.51,7.78-2.63,15.73-2.28,23.74c0.56,13.28,5.29,24.85,14.56,34.51
	c13.21,13.79,29.84,20.07,48.43,21.46c12.49,0.95,25.07,0.67,38.4-2.3c1.94-7.54,4.03-15.65,6.33-24.52
	c-2.13,0.94-3.52,1.51-4.86,2.16c-12.89,6.31-26.14,9.94-40.81,7.3L395.5,1177.44z"/>
<path fill="#000038" d="M652.31,1012.94c0,5.91,0.44,11.91,5.27,16.65H625.2c4.83-4.75,5.27-10.74,5.27-16.65
	c0-28.84-0.08-59.77,0-88.65c0.04-5.47-0.36-8.37-5.27-13.11h32.38c-4.91,4.75-5.31,7.64-5.27,13.15
	C652.39,953.17,652.31,984.1,652.31,1012.94L652.31,1012.94z"/>
</svg>
