<?xml version="1.0" encoding="utf-8"?>
<!-- Generator: Adobe Illustrator 26.0.2, SVG Export Plug-In . SVG Version: 6.00 Build 0)  -->
<svg version="1.1" id="Calque_1" xmlns="http://www.w3.org/2000/svg" xmlns:xlink="http://www.w3.org/1999/xlink" x="0px" y="0px"
	 viewBox="0 0 42.42 8.52" enable-background="new 0 0 42.42 8.52" xml:space="preserve">
<g>
	<defs>
		<rect id="SVGID_1_" width="42.52" height="8.5"/>
	</defs>
	<use xlink:href="#SVGID_1_"  overflow="visible" fill="#FFFFFF"/>
	<clipPath id="SVGID_00000021097944670128767410000001901346184269608846_">
		<use xlink:href="#SVGID_1_"  overflow="visible"/>
	</clipPath>
	<path clip-path="url(#SVGID_00000021097944670128767410000001901346184269608846_)" fill="#D42E1A" d="M5.5,4.81L5.5,4.81
		c0,0,0-0.05-0.03-0.12c0,0,0,0,0-0.01c0-0.01-0.01-0.02-0.01-0.04C5.34,4.34,4.94,3.72,3.6,3.72c-0.1-0.02-0.18-0.1-0.18-0.21V2.11
		c0-0.11,0.09-0.21,0.21-0.21h0.32c0.11,0,0.21,0.09,0.21,0.21v0.78h1.33c0.02-0.13,0.04-0.5,0.04-0.5
		c0.01-0.32-0.03-0.48-0.05-0.55c-0.1-0.4-0.3-0.72-0.81-0.87c-0.43-0.13-1.32-0.15-1.76,0c-0.42,0.14-0.78,0.49-0.9,0.86
		c-0.14,0.43-0.18,1.35-0.06,1.9c0,0,0,0,0,0S1.96,3.79,2,3.9c0,0,0,0.01,0,0.01c0,0.01,0.01,0.03,0.02,0.04
		c0.14,0.32,0.56,0.86,1.75,0.86l0.13,0.01c0.16,0.01,0.25,0.1,0.25,0.21v1.51c0,0.11-0.09,0.21-0.21,0.21H3.63
		c-0.11,0-0.21-0.09-0.21-0.21V5.8H1.99C1.97,5.96,1.95,6.21,1.95,6.44c0,0.01,0,0.02,0,0.03c0.01,0.3,0.12,0.59,0.32,0.8
		C2.4,7.4,2.55,7.51,2.72,7.55c0.44,0.13,1.49,0.13,1.97,0C5,7.47,5.37,7.2,5.47,6.87C5.6,6.41,5.61,5.37,5.5,4.81"/>
	<path clip-path="url(#SVGID_00000021097944670128767410000001901346184269608846_)" fill="#D42E1A" d="M8.77,0.96
		C8.55,0.89,8.23,0.85,7.92,0.85c-0.31,0-0.62,0.04-0.84,0.11C6.68,1.11,6.23,1.42,6.17,1.79C6,2.77,6,5.84,6.17,6.85
		c0.02,0.12,0.09,0.23,0.2,0.34c0.16,0.15,0.4,0.29,0.64,0.36c0.47,0.13,1.47,0.13,1.95,0c0.23-0.06,0.45-0.19,0.6-0.35
		c0.1-0.11,0.17-0.22,0.18-0.33c0.15-0.99,0.18-4.07,0-5.06C9.71,1.67,9.63,1.54,9.5,1.4C9.33,1.22,9.06,1.06,8.77,0.96 M8.37,6.56
		c-0.01,0.17-0.18,0.29-0.4,0.29c-0.23,0-0.39-0.12-0.4-0.29c-0.06-0.75-0.06-3.72,0-4.47c0.01-0.17,0.18-0.29,0.4-0.29
		c0.23,0,0.39,0.12,0.4,0.29C8.43,2.84,8.43,5.81,8.37,6.56"/>
	<polygon clip-path="url(#SVGID_00000021097944670128767410000001901346184269608846_)" fill="#D42E1A" points="40.07,7.08 
		40.07,5.36 40.64,5.36 40.64,7.08 40.64,7.64 40.64,7.65 38.68,7.65 38.68,7.08 	"/>
	<polygon clip-path="url(#SVGID_00000021097944670128767410000001901346184269608846_)" fill="#D42E1A" points="12.44,1.44 
		12.44,3.15 11.87,3.15 11.87,1.44 11.87,0.87 11.87,0.86 13.83,0.86 13.83,1.44 	"/>
	
		<rect fill="cmyk(0%, 0%, 0%, 100%)" x="13.83" y="2.1" clip-path="url(#SVGID_00000021097944670128767410000001901346184269608846_)" width="0.78" height="4.33"/>
	<polygon fill="cmyk(0%, 0%, 0%, 100%)" clip-path="url(#SVGID_00000021097944670128767410000001901346184269608846_)" points="15.25,2.1 16.14,2.1 16.59,4.16 
		16.65,4.7 16.76,4.7 16.69,4.16 16.69,2.1 17.47,2.1 17.47,6.43 16.58,6.43 16.13,4.38 16.06,3.84 15.96,3.84 16.03,4.38 
		16.03,6.43 15.25,6.43 	"/>
	<polygon fill="cmyk(0%, 0%, 0%, 100%)" clip-path="url(#SVGID_00000021097944670128767410000001901346184269608846_)" points="18.11,2.1 19.58,2.1 19.58,2.82 
		18.89,2.82 18.89,3.89 19.51,3.89 19.51,4.58 18.89,4.58 18.89,6.43 18.11,6.43 	"/>
	<path fill="cmyk(0%, 0%, 0%, 100%)" clip-path="url(#SVGID_00000021097944670128767410000001901346184269608846_)" d="M20.08,5.57v-2.6
		c0-0.56,0.41-0.93,1.01-0.93c0.61,0,1.01,0.38,1.01,0.93v2.6c0,0.56-0.41,0.94-1.01,0.94C20.49,6.51,20.08,6.13,20.08,5.57
		 M21.33,5.57v-2.6c0-0.14-0.09-0.23-0.23-0.23c-0.14,0-0.24,0.09-0.24,0.23v2.6c0,0.14,0.09,0.23,0.24,0.23
		C21.24,5.8,21.33,5.71,21.33,5.57"/>
	<path fill="cmyk(0%, 0%, 0%, 100%)" clip-path="url(#SVGID_00000021097944670128767410000001901346184269608846_)" d="M22.7,5.66v-2.7c0-0.56,0.41-0.93,1.01-0.93
		c0.61,0,1.01,0.38,1.01,0.93v0.56h-0.78V2.97c0-0.14-0.09-0.23-0.23-0.23c-0.14,0-0.24,0.09-0.24,0.23v2.6
		c0,0.14,0.1,0.23,0.24,0.23c0.15,0,0.25-0.09,0.25-0.23V4.56h-0.25V3.92h1.01v2.52H24.2V6.2l0.01-0.07h-0.07L24.13,6.2
		c-0.1,0.2-0.32,0.3-0.6,0.3C23.03,6.51,22.7,6.17,22.7,5.66"/>
	<path fill="cmyk(0%, 0%, 0%, 100%)" clip-path="url(#SVGID_00000021097944670128767410000001901346184269608846_)" d="M25.35,2.1h1.08c0.56,0,0.94,0.35,0.94,0.87
		v0.96c0,0.28-0.12,0.52-0.32,0.67l0.4,1.83h-0.79l-0.32-1.65h-0.22v1.65h-0.78V2.1z M26.13,2.82v1.3h0.23
		c0.14,0,0.24-0.09,0.24-0.23V3.04c0-0.14-0.09-0.23-0.24-0.23H26.13z"/>
	<path fill="cmyk(0%, 0%, 0%, 100%)" clip-path="url(#SVGID_00000021097944670128767410000001901346184269608846_)" d="M28.36,2.1h1.2l0.52,4.33h-0.82l-0.09-1.05
		h-0.46l-0.09,1.05h-0.79L28.36,2.1z M28.76,4.75h0.36l-0.13-1.51V2.88h-0.11v0.36L28.76,4.75z"/>
	<path fill="cmyk(0%, 0%, 0%, 100%)" clip-path="url(#SVGID_00000021097944670128767410000001901346184269608846_)" d="M30.57,2.1h1.06c0.58,0,0.96,0.36,0.96,0.89
		v1.02c0,0.53-0.38,0.89-0.96,0.89h-0.28v1.53h-0.78V2.1z M31.35,2.82v1.38h0.23c0.14,0,0.24-0.09,0.24-0.23V3.04
		c0-0.14-0.09-0.23-0.24-0.23H31.35z"/>
	<polygon fill="cmyk(0%, 0%, 0%, 100%)" clip-path="url(#SVGID_00000021097944670128767410000001901346184269608846_)" points="33.13,2.1 33.9,2.1 33.9,3.89 
		34.37,3.89 34.37,2.1 35.15,2.1 35.15,6.43 34.37,6.43 34.37,4.58 33.9,4.58 33.9,6.43 33.13,6.43 	"/>
	
		<rect fill="cmyk(0%, 0%, 0%, 100%)" x="35.79" y="2.1" clip-path="url(#SVGID_00000021097944670128767410000001901346184269608846_)" width="0.78" height="4.33"/>
	<polygon fill="cmyk(0%, 0%, 0%, 100%)" clip-path="url(#SVGID_00000021097944670128767410000001901346184269608846_)" points="37.21,2.1 38.68,2.1 38.68,2.82 
		37.98,2.82 37.98,3.89 38.61,3.89 38.61,4.58 37.98,4.58 37.98,5.72 38.68,5.72 38.68,6.43 37.21,6.43 	"/>
</g>
</svg>
